ffmpeg version 2025-10-12-git-0bc54cddb1-full_build-www.gyan.dev Copyright (c) 2000-2025 the FFmpeg developers
  built with gcc 15.2.0 (Rev8, Built by MSYS2 project)
  configuration: --enable-gpl --enable-version3 --enable-static --disable-w32threads --disable-autodetect --enable-fontconfig --enable-iconv --enable-gnutls --enable-lcms2 --enable-libxml2 --enable-gmp --enable-bzlib --enable-lzma --enable-libsnappy --enable-zlib --enable-librist --enable-libsrt --enable-libssh --enable-libzmq --enable-avisynth --enable-libbluray --enable-libcaca --enable-libdvdnav --enable-libdvdread --enable-sdl2 --enable-libaribb24 --enable-libaribcaption --enable-libdav1d --enable-libdavs2 --enable-libopenjpeg --enable-libquirc --enable-libuavs3d --enable-libxevd --enable-libzvbi --enable-liboapv --enable-libqrencode --enable-librav1e --enable-libsvtav1 --enable-libvvenc --enable-libwebp --enable-libx264 --enable-libx265 --enable-libxavs2 --enable-libxeve --enable-libxvid --enable-libaom --enable-libjxl --enable-libvpx --enable-mediafoundation --enable-libass --enable-frei0r --enable-libfreetype --enable-libfribidi --enable-libharfbuzz --enable-liblensfun --enable-libvidstab --enable-libvmaf --enable-libzimg --enable-amf --enable-cuda-llvm --enable-cuvid --enable-dxva2 --enable-d3d11va --enable-d3d12va --enable-ffnvcodec --enable-libvpl --enable-nvdec --enable-nvenc --enable-vaapi --enable-libshaderc --enable-vulkan --enable-libplacebo --enable-opencl --enable-libcdio --enable-openal --enable-libgme --enable-libmodplug --enable-libopenmpt --enable-libopencore-amrwb --enable-libmp3lame --enable-libshine --enable-libtheora --enable-libtwolame --enable-libvo-amrwbenc --enable-libcodec2 --enable-libilbc --enable-libgsm --enable-liblc3 --enable-libopencore-amrnb --enable-libopus --enable-libspeex --enable-libvorbis --enable-ladspa --enable-libbs2b --enable-libflite --enable-libmysofa --enable-librubberband --enable-libsoxr --enable-chromaprint --enable-whisper
  libavutil      60. 13.100 / 60. 13.100
  libavcodec     62. 16.100 / 62. 16.100
  libavformat    62.  6.101 / 62.  6.101
  libavdevice    62.  2.100 / 62.  2.100
  libavfilter    11.  9.100 / 11.  9.100
  libswscale      9.  3.100 /  9.  3.100
  libswresample   6.  2.100 /  6.  2.100
-vsync is deprecated. Use -fps_mode
Passing a number to -vsync is deprecated, use a string argument as described in the manual.
Input #0, mov,mp4,m4a,3gp,3g2,mj2, from '\\MINGSEO2\Khay den\ASMR 2.0\198LA\198LA.mp4':
  Metadata:
    major_brand     : mp42
    minor_version   : 0
    compatible_brands: mp42mp41
    creation_time   : 2025-08-28T06:59:32.000000Z
  Duration: 00:04:08.48, start: 0.000000, bitrate: 16065 kb/s
  Stream #0:0[0x1](eng): Video: h264 (Main) (avc1 / 0x31637661), yuv420p(progressive), 1920x1080 [SAR 1:1 DAR 16:9], 15740 kb/s, 60 fps, 60 tbr, 60k tbn (default)
    Metadata:
      creation_time   : 2025-08-28T06:59:32.000000Z
      handler_name    : ?Mainconcept Video Media Handler
      vendor_id       : [0][0][0][0]
      encoder         : AVC Coding
  Stream #0:1[0x2](eng): Audio: aac (LC) (mp4a / 0x6134706D), 48000 Hz, stereo, fltp, 317 kb/s (default)
    Metadata:
      creation_time   : 2025-08-28T06:59:32.000000Z
      handler_name    : #Mainconcept MP4 Sound Media Handler
      vendor_id       : [0][0][0][0]
Stream mapping:
  Stream #0:0 -> #0:0 (h264 (native) -> h264 (h264_nvenc))
  Stream #0:1 -> #0:1 (aac (native) -> aac (native))
Press [q] to stop, [?Output #0, mp4, Output #0, mp4, to 'normalized_1.mp4':
  Metadata:
    major_brand     : mp42
    minor_version   : 0
    compatible_brands: mp42mp41
    encoder         : Lavf62.6.:0(en  : Video:0:0(eng): Video: h264 (Main) (avc1 / 0x31637661), yuv420p(tv, progressive), 1920x1080 [SAR 1:1 DAR 16:9], q=2-31, 60 fps, 15360   n (default)
    Metadata:
      encoder         : Lavc62.16.100 h264_nvenc
      creation_time   : 2025-03-17T03:46:20.000000Z
      handler_name    : ?Mainconcept Video Media Handler
      vendor_id       : [0][0][0][0]
    Side data:
      CPB properties: bitrate max/min/avg: 12000000/0/0 buffer size: 0 vbv_delay: :1(en ): Audio: :1(eng): Audio: aac (LC) (mp4a / 0x6134706D), 48000 Hz, stereo, fltp, 160      (default)
    Metadata:
      encoder         : Lavc62.16.100 aac
      creation_time   : 2025-03-17T03:46:20.000000Z
      handler_name    : #Mainconcept MP4 Sound Media Handler
      vendor_id       framframe=  frame=   10 fps=9.6 q=35.0 size=     512KiB time=00:00:00.11 bitrate=35954.4kbits/s speed=0.112frame=   41 fps= frame=  frame=   47 fps= 30 q=32.0 size=    1280KiB time=00:00:00.73 bitrate=14299.3kbits/s speed=0.47frame=   74 frame=frame=  frame=   79 fps= 38 q=30.0 size=    1792KiB time=00:00:01.26 bitrate=11589.8kbits/s speed=0.6frame=  109 fps= 4frame=  1frame=  115 fps= 45 q=29.0 size=    2560KiB time=00:00:01.86 bitrate=11234.9kbits/s speed=0.frame=  145 fframe=frame=  1frame=  149 fps= 48 q=29.0 size=    3328KiB time=00:00:02.43 bitrate=11204.1kbits/s speed=0frame=  177 fpframe=frame=  1frame=  183 fps= 51 q=27.0 size=    4096KiB time=00:00:03.00 bitrate=11184.9kbits/s speedframe=  213 fps= 51 q=frame=  2frame=  219 fps= 53 q=27.0 size=    4864KiB time=00:00:03.60 bitrate=11068.4kbits/s speeframe=  245 fps= frame=frame=  frame=  251 fps= 54 q=21.0 size=    5632KiB time=00:00:04.13 bitrate=11162.4kbits/s speeframe=  281 fps= 5frame=frame= frame=  287 fps= 56 q=30.0 size=    6656KiB time=00:00:04.73 bitrate=11519.6kbits/s speeframe=  313 fps= 55 q=26.frame= frame=  319 fps= 56 q=32.0 size=    7680KiB time=00:00:05.26 bitrate=11945.9kbits/s speframe=  349 fps= 56 frame=frame= frame=  355 fps= 57 q=32.0 size=    8704KiB time=00:00:05.86 bitrate=12154.0kbits/s sframe=  381 fps= 57 q=26.0 sframe= frame=  387 fps= 58 q=33.0 size=    9472KiB time=00:00:06.40 bitrate=12124.2kbits/s frame=  415 fps= 57 q=2frameframe=  frame=  419 fps= 58 q=32.0 size=   10240KiB time=00:00:06.93 bitrate=12099.0kbits/sframe=  449 fps= 58 q=25.0 siframe= frame=  455 fps= 59 q=34.0 size=   11008KiB time=00:00:07.53 bitrate=11970.5kbits/sframe=  481 fps= 58 q=25.frameframe= frame=  487 fps= 59 q=33.0 size=   11776KiB time=00:00:08.06 bitrate=11959.0kbits/frame=  517 fps= 59 q=29.0 sizeframe= frame=  521 fps= 59 q=32.0 size=   13056KiB time=00:00:08.63 bitrate=12388.6kbitsframe=  549 fps= 59 q=29.0 size=frame= frame=  553 fps= 60 q=32.0 size=   13568KiB time=00:00:09.16 bitrate=12125.4kbitframe=  585 fps= 60 q=25.0 sframeframe= frame=  586 fps= 60 q=27.0 size=   14592KiB time=00:00:09.71 bitrate=12302.4kbiframe=  617 fps= 60 q=25.0 siframeframe= frame=  621 fps= 60 q=32.0 size=   15360KiB time=00:00:10.30 bitrate=12216.5kbframe=  653 fps= 60 q=26.0 sizframeframe= frame=  653 fps= 60 q=33.0 size=   16128KiB time=00:00:10.83 bitrate=12195.8kframe=  685 fps= 60 q=28.0 size=   frame= frame=  689 fps= 61 q=30.0 size=   16640KiB time=00:00:11.43 bitrate=11922.6kframe=  720 fps= 61 q=27.0 sizframeframe= frame=  721 fps= 61 q=30.0 size=   17408KiB time=00:00:11.96 bitrate=11917.0frame=  753 fps= 61 q=24.0 sizeframeframe= frame=  757 fps= 61 q=25.0 size=   18176KiB time=00:00:12.56 bitrate=11848.7frame=  789 fps= 61 q=24.0 size=   1frame= frame=  789 fps= 61 q=25.0 size=   18944KiB time=00:00:13.10 bitrate=11846.5frame=  821 fps= 61 q=24.0 sizeframeframe= frame=  825 fps= 62 q=25.0 size=   19968KiB time=00:00:13.70 bitrate=11940.0frame=  857 fps= 61 q=23.0 size=   1frame= frame=  857 fps= 62 q=28.0 size=   20992KiB time=00:00:14.23 bitrate=12082.0frame=  889 fps= 61 q=23.0 size=   1frame= frame=  893 fps= 62 q=29.0 size=   22016KiB time=00:00:14.83 bitrate=12158.8frame=  924 fps= 62 q=21.0 sizeframeframe= frame=  925 fps= 62 q=30.0 size=   22784KiB time=00:00:15.36 bitrate=12146.2frame=  957 fps= 62 q=23.0 size=   2frame= frame=  960 fps= 62 q=25.0 size=   23552KiB time=00:00:15.93 bitrate=12109.1frame=  989 fps= 62 q=24.0 size=   2frame= frame=  993 fps= 62 q=29.0 size=   24320KiB time=00:00:16.50 bitrate=12074.5frame= 1025 fps= 62 q=27.0 sizeframeframe= frame= 1029 fps= 62 q=31.0 size=   25088KiB time=00:00:17.10 bitrate=12018.8frame= 1057 fps= 62 q=27.0 sizeframeframe= frame= 1061 fps= 62 q=32.0 size=   25856KiB time=00:00:17.63 bitrate=12012.1frame= 1093 fps= 62 q=27.0 sizeframeframe= frame= 1096 fps= 62 q=31.0 size=   26624KiB time=00:00:18.21 bitrate=11972.8frame= 1125 fps= 62 q=26.0 size=   2frame= frame= 1129 fps= 63 q=30.0 size=   27392KiB time=00:00:18.76 bitrate=11957.1frame= 1161 fps= 62 q=25.0 sizeframeframe= frame= 1161 fps= 63 q=31.0 size=   28416KiB time=00:00:19.30 bitrate=12061.4frame= 1193 fps= 62 q=24.0 sizeframeframe= frame= 1197 fps= 63 q=31.0 size=   29184KiB time=00:00:19.90 bitrate=12013.9frame= 1229 fps= 63 q=25.0 sizeframeframe= frame= 1229 fps= 63 q=30.0 size=   29696KiB time=00:00:20.43 bitrate=11905.5frame= 1261 fps= 63 q=23.0 sizeframeframe= frame= 1265 fps= 63 q=27.0 size=   30976KiB time=00:00:21.03 bitrate=12064.5frame= 1297 fps= 63 q=23.0 size=   2frame= frame= 1297 fps= 63 q=26.0 size=   31488KiB time=00:00:21.56 bitrate=11960.6frame= 1329 fps= 63 q=23.0 sizeframeframe= frame= 1333 fps= 63 q=27.0 size=   32512KiB time=00:00:22.16 bitrate=12015.3frame= 1365 fps= 63 q=25.0 sizeframeframe= frame= 1365 fps= 63 q=27.0 size=   33280KiB time=00:00:22.70 bitrate=12010.1frame= 1397 fps= 63 q=25.0 sizeframeframe= frame= 1400 fps= 63 q=22.0 size=   34048KiB time=00:00:23.28 bitrate=11979.5frame= 1431 fps= 63 q=28.0 sizeframeframe= frame= 1433 fps= 63 q=25.0 size=   34816KiB time=00:00:23.83 bitrate=11967.0frame= 1465 fps= 63 q=25.0 sizeframeframe= frame= 1468 fps= 63 q=21.0 size=   35584KiB time=00:00:24.41 bitrate=11938.8frame= 1501 fps= 63 q=17.0 sizeframeframe= frame= 1501 fps= 63 q=17.0 size=   36352KiB time=00:00:24.96 bitrate=11927.7frame= 1533 fps= 63 q=26.0 size=   3frame= frame= 1537 fps= 63 q=26.0 size=   37376KiB time=00:00:25.56 bitrate=11975.9frame= 1568 fps= 63 q=27.0 sizeframeframe= frame= 1569 fps= 63 q=28.0 size=   38144KiB time=00:00:26.10 bitrate=11972.3frame= 1601 fps= 63 q=24.0 sizeframeframe= frame= 1605 fps= 64 q=25.0 size=   39168KiB time=00:00:26.70 bitrate=12017.4frame= 1636 fps= 63 q=25.0 size=   3frame= frame= 1637 fps= 63 q=27.0 size=   39936KiB time=00:00:27.23 bitrate=12013.1frame= 1669 fps= 63 q=25.0 sizeframeframe= frame= 1673 fps= 64 q=28.0 size=   40704KiB time=00:00:27.83 bitrate=11980.2frame= 1703 fps= 63 q=24.0 sizeframeframe= frame= 1705 fps= 64 q=29.0 size=   41472KiB time=00:00:28.36 bitrate=11976.7frame= 1737 fps= 63 q=27.0 sizeframeframe= frame= 1740 fps= 64 q=25.0 size=   42240KiB time=00:00:28.95 bitrate=11952.7frame= 1769 fps= 63 q=25.0 sizeframeframe= 1779 fps= 64 q=23.0 size=   43264KiB time=00:00:29.60 bitrate=11973.6kbits/sframe= 1805 fps= 64 q=25.0 sizeframeframe= frame= 1807 fps= 64 q=31.0 size=   44288KiB time=00:00:30.06 bitrate=12066.8frame= 1838 fps= 64 q=27.0 sizeframeframe= frame= 1841 fps= 64 q=26.0 size=   45056KiB time=00:00:30.63 bitrate=12048.9frame= 1873 fps= 64 q=22.0 size=   4frame= frame= 1873 fps= 64 q=26.0 size=   45824KiB time=00:00:31.16 bitrate=12044.6frame= 1905 fps= 64 q=21.0 sizeframeframe= 1915 fps= 64 q=26.0 size=   46592KiB time=00:00:31.86 bitrate=11977.5kbits/sframe= 1941 fps= 64 q=22.0 size=   4frame= 1947 fps= 64 q=26.0 size=   47360KiB time=00:00:32.40 bitrate=11974.5kbits/sframe= 1973 fps= 64 q=23.0 size=   4frame= frame= 1977 fps= 64 q=28.0 size=   48384KiB time=00:00:32.90 bitrate=12047.5frame= 2009 fps= 64 q=25.0 sizeframeframe= frame= 2009 fps= 64 q=30.0 size=   49408KiB time=00:00:33.43 bitrate=12106.2frame= 2041 fps= 64 q=24.0 size=   4frame= 2047 fps= 64 q=23.0 size=   49920KiB time=00:00:34.06 bitrate=12004.3kbits/sframe= 2077 fps= 64 q=26.0 sizeframeframe= frame= 2077 fps= 64 q=28.0 size=   50944KiB time=00:00:34.56 bitrate=12073.3frame= 2109 fps= 64 q=25.0 size=   4frame= 2115 fps= 64 q=23.0 size=   51712KiB time=00:00:35.20 bitrate=12034.8kbits/sframe= 2145 fps= 64 q=25.0 sizeframeframe= frame= 2145 fps= 64 q=26.0 size=   52224KiB time=00:00:35.70 bitrate=11983.7frame= 2177 fps= 64 q=24.0 size=   5frame= frame= 2181 fps= 64 q=27.0 size=   53248KiB time=00:00:36.30 bitrate=12016.7frame= 2212 fps= 64 q=23.0 sizeframeframe= 2219 fps= 64 q=23.0 size=   54016KiB time=00:00:36.93 bitrate=11981.0kbits/sframe= 2245 fps= 64 q=23.0 size=   5frame= 2251 fps= 64 q=15.0 size=   54784KiB time=00:00:37.46 bitrate=11978.4kbits/sframe= 2280 fps= 64 q=18.0 sizeframeframe= 2287 fps= 64 q=23.0 size=   55808KiB time=00:00:38.06 bitrate=12010.0kbits/sframe= 2313 fps= 64 q=22.0 size=   5frame= 2319 fps= 64 q=23.0 size=   56576KiB time=00:00:38.60 bitrate=12007.0kbits/sframe= 2348 fps= 64 q=18.0 sizeframeframe= 2355 fps= 64 q=26.0 size=   57600KiB time=00:00:39.20 bitrate=12037.2kbits/sframe= 2381 fps= 64 q=23.0 sizeframeframe= 2387 fps= 64 q=24.0 size=   58368KiB time=00:00:39.73 bitrate=12034.0kbits/sframe= 2416 fps= 64 q=18.0 sizeframeframe= 2423 fps= 64 q=24.0 size=   59136KiB time=00:00:40.33 bitrate=12011.0kbits/sframe= 2449 fps= 64 q=23.0 size=   5frame= frame= 2451 fps= 64 q=29.0 size=   60160KiB time=00:00:40.80 bitrate=12079.2frame= 2482 fps= 64 q=24.0 sizeframeframe= frame= 2485 fps= 64 q=25.0 size=   60928KiB time=00:00:41.36 bitrate=12065.8frame= 2517 fps= 64 q=27.0 sizeframeframe= 2523 fps= 64 q=23.0 size=   61696KiB time=00:00:42.00 bitrate=12033.7kbits/frame= 2553 fps= 64 q=26.0 size=   59648KiBframe= 2553 fps= 64 q=25.0 size=   62464KiB time=00:00:42.50 bitrate=12040.frame= 2585 fps= 64 q=26.0 size=   60416KiB time=00:00:43.03 bitrate=11501.0kbits/s speed=1.07x elapsed=0:00:40.27    frame= 2621 fps= 64 q=22.0 size=   6frame= frame= 2621 fps= 64 q=31.0 size=   64256KiB time=00:00:43.63 bitrate=12063.frame= 2653 fps= 64 q=27.0 size=   6frame= 2659 fps= 64 q=21.0 size=   65024KiB time=00:00:44.26 bitrate=12033.4kbits/frame= 2689 fps= 64 q=27.0 sizeframeframe= 2693 fps= 64 q=24.0 size=   65792KiB time=00:00:44.83 bitrate=12021.6kbits/sframe= 2721 fps= 64 q=28.0 size=   6frame= 2727 fps= 64 q=23.0 size=   66816KiB time=00:00:45.40 bitrate=12056.3kbits/frame= 2757 fps= 64 q=23.0 size=   64768KiBframe= 2757 fps= 64 q=27.0 size=   67840KiB time=00:00:45.90 bitrate=12107.frame= 2789 fps= 64 q=23.0 size=   6frame= 2795 fps= 64 q=21.0 size=   68352KiB time=00:00:46.53 bitrate=12033.1kbits/frame= 2825 fps= 64 q=23.0 sizeframeframe= 2827 fps= 64 q=23.0 size=   69120KiB time=00:00:47.06 bitrate=12030.4kbits/frame= 2857 fps= 64 q=24.0 size=   67328KiB time=00:00:47.56 bitrate=11595.3kbits/s speed=1.07x elapsed=0:00:44.40    frame= 2891 fps= 64 q=27.0 sizeframe= 2895 fps= 64 q=29.0 size=   70912KiB time=00:00:48.20 bitrate=12052.1kbits/s speframe= 2925 fps= 64 q=24.0 sizeframe= 2927 fps= 64 q=29.0 size=   71680KiB time=00:00:48.73 bitrate=12049.3kbits/s speframe= 2957 fps= 64 q=24.0 size=   6frame= 2963 fps= 65 q=26.0 size=   72448KiB time=00:00:49.33 bitrate=12030.3kbits/frame= 2993 fps= 64 q=23.0 size=   7frame= frame= 2993 fps= 64 q=27.0 size=   73472KiB time=00:00:49.83 bitrate=12077.frame= 3025 fps= 64 q=24.0 sizeframeframe= frame= 3026 fps= 64 q=23.0 size=   74496KiB time=00:00:50.38 bitrate=12112.frame= 3061 fps= 64 q=26.0 size=   72448KiBframe= 3061 fps= 65 q=30.0 size=   75264KiB time=00:00:50.96 bitrate=12097.frame= 3093 fps= 64 q=24.0 sizeframe= 3097 fps= 65 q=28.0 size=   75776KiB time=00:00:51.56 bitrate=12038.0kbits/s speframe= 3129 fps= 64 q=22.0 size=   7frame= 3135 fps= 65 q=22.0 size=   76800KiB time=00:001.07x elapsed=0:2052.6kbits/frame= 3161 fps= 64 q=24.0 size=   74496KiBframe= 3162 fps= 65 q=23.0 size=   77568KiB time=00:00:52.65 bitrate=12069.frame= 3197 fps= 64 q=23.0 size=   75520KiB time=00:00:53.23 bitrate=11621.7kbits/s speed=1.07x elapsed=0:00:49.57    frame= 3233 fps= 65 q=24.0 sizeframe= 3235 fps= 65 q=18.0 size=   78848KiB time=00:00:53.86 bitrate=11991.1kbits/s speframe= 3265 fps= 65 q=23.0 size=   77312KiB time=00:00:54.36 bitrate=11649.4kbits/s speed=1.07x elapsed=0:00:50.60    frame= 3301 fps= 65 q=20.0 size=   78080KiB time=00:00:54.96 bitrate=11636.7kbits/s speed=1.08x elapsed=0:00:51.12    frame= 3333 fps= 65 q=21.0 size=   7frame= 3339 fps= 65 q=24.0 size=   81920KiB time=00:00:55.60 bitrate=12069.9kbits/frame= 3369 fps= 65 q=22.0 sizeframe= 3371 fps= 65 q=26.0 size=   82432KiB time=00:00:56.13 bitrate=12030.0kbits/s speeframe= 3401 fps= 65 q=21.0 size=   80640KiB time=00:00:56.63 bitrate=11664.6kbits/s speed=1.08x elapsed=0:00:52.67    frame= 3437 fps= 65 q=24.0 sizeframeframe= frame= 3437 fps= 65 q=26.0 size=   84480KiB time=00:00:57.23 bitrate=12091.frame= 3469 fps= 65 q=22.0 size=   8frame= frame= 3469 fps= 65 q=26.0 size=   85248KiB time=00:00:57.76 bitrate=12089.frame= 3505 fps= 65 q=25.0 sizeframeframe= 3511 fps= 65 q=25.0 size=   86272KiB time=00:00:58.46 bitrate=12087.9kbits/frame= 3537 fps= 65 q=25.0 size=   8frame= 3543 fps= 65 q=25.0 size=   87040KiB time=00:00:59.00 bitrate=12085.3kbits/frame= 3573 fps= 65 q=24.0 sizeframe= 3575 fps= 65 q=23.0 size=   87552KiB time=00:00:59.53 bitrate=12047.5kbits/s speframe= 3605 fps= 65 q=22.0 size=   85504KiB time=00:01:00.03 bitrate=11667.7kbits/s speed=1.08x elapsed=0:00:55.76    frame= 3641 fps= 65 q=24.0 size=   86528KiB time=00:01:00.63 bitrate=11690.6kbits/s speed=1.08x elapsed=0:00:56.28    frame= 3673 fps= 65 q=28.0 sizeframe= 3679 fps= 65 q=23.0 size=   90112KiB time=00:01:01.26 bitrate=12048.9kbits/s speframe= 3709 fps= 65 q=24.0 sizeframeframe= 3715 fps= 65 q=22.0 size=   91136KiB time=00:01:01.86 bitrate=12067.7kbits/sframe= 3745 fps= 65 q=23.0 sizeframe= 3747 fps= 65 q=25.0 size=   91904KiB time=00:01:02.40 bitrate=12065.4kbits/s speframe= 3777 fps= 65 q=22.0 size=   9frame= frame= 3777 fps= 65 q=28.0 size=   93184KiB time=00:01:02.90 bitrate=12136.frame= 3813 fps= 65 q=22.0 sizeframe= 3815 frame= 3813 fps= 65 q=26.0 size=   93952KiB time=00:01:03.50 bitrate=12120.frame= 3845 fps= 65 q=23.0 size=   91648KiBframe= 3845 fps= 65 q=26.0 size=   94464KiB time=00:01:04.03 bitrate=12085.frame= 3881 fps= 65 q=22.0 size=   9frame= frame= 3881 fps= 65 q=28.0 size=   95488KiB time=00:0elapsed=0:00:59.12102.frame= 3917 fps= 65 q=22.0 sizeframe= 3919 frame= 3917 fps= 65 q=28.0 size=   96512KiB time=00:01:05.23 bitrate=12120.0frame= 3949 fps= 65 q=21.0 size=   93952KiB time=00:01:05.76 bitrate=11702.8kbits/s speed=1.08x elapsed=0:01:00.96    frame= 3985 fps= 65 q=23.0 sizeframe= 3987 frame= 3985 fps= 65 q=24.0 size=   98048KiB time=00:01:06.36 bitrate=12102.frame= 4017 fps= 65 q=28.0 size=   9frame= 4023 fps= 65 q=23.0 size=   98816KiB time=00:01:07.00 bitrate=12082.1kbits/frame= 4053 fps= 65 q=28.0 size=   96768KiB time=00:01:07.50 bitrate=11744.1kbits/s speed=1.08x elapsed=0:01:02.50    frame= 4085 fps= 65 q=26.0 size=   9frame= frame= 4085 fps= 65 q=30.0 size=  100608KiB time=00:01:08.03 bitrate=12114.4frame= 4121 fps= 65 q=27.0 size=   98560KiB time=00:01:08.63 bitrate=11764.0kbits/s speed=1.08x elapsed=0:01:03.53    frame= 4153 fps= 65 q=26.0 sizeframe= 4155 fps= 65 q=25.0 size=  102144KiB time=00:01:09.20 bitrate=12092.0kbits/s speeframe= 4186 fps= 65 q=20.0 sizeframe= 4191 fps= 65 q=27.0 size=  103168KiB time=00:01:09.80 bitrate=12108.2kbits/s speframe= 4221 fps= 65 q=25.0 size=  100864KiB time=00:01:10.30 bitrate=11753.6kbits/s speed=1.08x elapsed=0:01:05.08    frame= 4255 fps= 65 q=26.0 size=  101888KiB time=00:01:10.86 bitrate=11778.0kbits/s speed=1.08x elapsed=0:01:05.58    frame= 4289 fps= 65 q=23.0 size=  102656KiB time=00:01:11.43 bitrate=11772.6kbits/s speed=1.08x elapsed=0:01:06.11    frame= 4325 fps= 65 q=23.0 sizeframe= 4327 fps= 65 q=25.0 size=  106240KiB time=00:01:12.06 bitrate=12076.6kbits/s speframe= 4357 fps= 65 q=24.0 size=  104448KiB time=00:01:12.56 bitrate=11791.1kbits/s speed=1.08x elapsed=0:01:07.14    frame= 4393 fps= 65 q=21.0 size=  10frame= 4395 fps= 65 q=18.0 size=  108032KiB time=00:01:13.20 bitrate=12090.1kbits/frame= 4425 fps= 65 q=23.0 sizeframe= 4430 fps= 65 q=24.0 size=  108800KiB time=00:01:13.78 bitrate=12079.8kbits/s speframe= 4461 fps= 65 q=21.0 sizeframeframe= 4465 fps= 65 q=22.0 size=  109824KiB time=00:01:14.36 bitrate=12097.9kbits/sframe= 4493 fps= 65 q=20.0 sizeframe= 4499 fps= 65 q=24.0 size=  110336KiB time=00:01:14.93 bitrate=12062.4kbits/s speframe= 4529 fps= 65 q=24.0 sizeframe= 4531 fps= 65 q=23.0 size=  111360KiB time=00:01:15.46 bitrate=12088.3kbits/s speframe= 4562 fps= 65 q=17.0 size=  109312KiB time=00:01:15.96 bitrate=11787.9kbits/s speed=1.08x elapsed=0:01:10.24    frame= 4597 fps= 65 q=24.0 sizeframe= 4599 frame= 4597 fps= 65 q=30.0 size=  113152KiB time=08x elapsed=0:01:te=12106.frame= 4630 fps= 65 q=18.0 sizeframe= 4635 fps= 65 q=21.0 size=  113664KiB time=00:01:17.20 bitrate=12061.3kbits/s speframe= 4665 fps= 65 q=25.0 sizeframe= 4667 fps= 65 q=19.0 size=  114432KiB time=00:01:17.73 bitrate=12059.5kbits/s speframe= 4701 fps= 65 q=26.0 size=  11frame= 4703 fps= 65 q=20.0 size=  115456KiB time=00:01:18.33 bitrate=12074.2kbits/frame= 4733 fps= 65 q=23.0 size=  11frame= 4739 fps= 65 q=20.0 size=  116224KiB time=00:01:18.93 bitrate=12062.2kbits/sframe= 4766 fps= 65 q=24.0 size=  11frame= 4771 fps= 65 q=23.0 size=  117248KiB time=00:01:19.46 bitrate=12086.8kbits/frame= 4801 fps= 65 q=21.0 sizeframe= 4803 frame= 4801 fps= 65 q=29.0 size=  118528KiB time=00:01:19.96 bitrate=12142.frame= 4836 fps= 65 q=17.0 sizeframeframe= frame= 4837 fps= 65 q=29.0 size=  119296KiB time=00:01:20.56 bitrate=12130.frame= 4869 fps= 65 q=21.0 sizeframe= 4872 fps= 65 q=20.0 size=  119552KiB time=00:01:21.15 bitrate=12068.6kbits/s speeframe= 4905 fps= 65 q=21.0 sizeframe= 4907 fps= 65 q=27.0 size=  120576KiB time=00:01:21.73 bitrate=12085.1kbits/s speframe= 4937 fps= 65 q=25.0 sizeframeframe= 4943 fps= 65 q=26.0 size=  121600KiB time=00:01:22.33 bitrate=12099.0kbits/frame= 4972 fps= 65 q=21.0 sizeframe= 4975 fps= 65 q=27.0 size=  122112KiB time=00:01:22.86 bitrate=12071.7kbits/s speframe= 5005 fps= 65 q=27.0 size=  120320KiB time=00:01:23.36 bitrate=11823.2kbits/s speed=1.08x elapsed=0:01:16.94    frame= 5040 fps= 65 q=25.0 sizeframe= 5043 fps= 65 q=28.0 size=  124416KiB time=00:01:24.00 bitrate=12133.5kbits/s speframe= 5073 fps= 65 q=24.0 size=  121856KiBframe= 5073 fps= 65 q=29.0 size=  124928KiB time=00:01:24.50 bitrate=12111.frame= 5109 fps= 65 q=25.0 sizeframeframe= frame= 5109 fps= 65 q=31.0 size=  125952KiB time=00:01:25.10 bitrate=12124.5frame= 5141 fps= 65 q=27.0 sizeframeframe= frame= 5142 fps= 65 q=25.0 size=  126720KiB time=00:01:25.65 bitrate=12120.frame= 5177 fps= 65 q=26.0 size=  124416KiB time=00:01:26.23 bitrate=11819.3kbits/s speed=1.08x elapsed=0:01:19.51    frame= 5209 fps= 65 q=21.0 sizeframe= 5211 frame= 5209 fps= 65 q=27.0 size=  128000KiB time=00:01:26.76 bitrate=12085.0frame= 5245 fps= 65 q=25.0 sizeframe= 5247 frame= 5245 fps= 65 q=26.0 size=  129024KiB time=00:01:27.36 bitrate=12098.frame= 5277 fps= 65 q=23.0 size=  126976KiB time=00:01:27.90 bitrate=11833.8kbits/s speed=1.08x elapsed=0:01:21.07    frame= 5313 fps= 65 q=25.0 sizeframe= 5315 fps= 65 q=34.0 size=  131328KiB time=00:01:28.53 bitrate=12151.8kbits/s speframe= 5345 fps= 65 q=24.0 size=  12frame= 5351 fps= 65 q=24.0 size=  131584KiB time=00:01:29.13 bitrate=12093.5kbits/frame= 5381 fps= 65 q=24.0 sizeframe= 5383 fps= 65 q=33.0 size=  132864KiB time=00:01:29.66 bitrate=12138.5kbits/s speframe= 5413 fps= 65 q=25.0 size=  13frame= 5419 fps= 65 q=24.0 size=  133376KiB time=00:01:30.26 bitrate=12104.3kbits/sframe= 5449 fps= 65 q=25.0 size=  131328KiB time=00:01:30.76 bitrate=11852.8kbits/s speed=1.09x elapsed=0:01:23.64    frame= 5481 fps= 65 q=24.0 size=  132096KiB time=00:01:31.30 bitrate=11852.5kbits/s speed=1.08x elapsed=0:01:24.15    frame= 5517 fps= 65 q=27.0 size=  133120KiBframe= 5517 fps= 65 q=29.0 size=  135936KiB time=00:01:31.90 bitrate=12117.frame= 5549 fps= 65 q=27.0 sizeframe= 5554 fps= 65 q=27.0 size=  137216KiB time=00:01:32.51 bitrate=12150.0kbits/s speframe= 5585 fps= 65 q=26.0 sizeframe= 5587 frame= 5585 fps= 65 q=28.0 size=  137472KiB time=00:01:33.03 bitrate=12105.frame= 5617 fps= 65 q=26.0 size=  13frame= 5623 fps= 65 q=24.0 size=  138240KiB time=00:01:33.66 bitrate=12090.3kbits/sframe= 5653 fps= 65 q=23.0 sizeframeframe= frame= 5653 fps= 65 q=30.0 size=  139520KiB time=00:01:34.16 bitrate=12137.frame= 5689 fps= 65 q=20.0 sizeframeframe= frame= 5689 fps= 65 q=32.0 size=  140544KiB time=00:01:34.76 bitrate=12149.frame= 5721 fps= 65 q=24.0 sizeframe= 5725 fps= 65 q=36.0 size=  141568KiB time=00:01:35.36 bitrate=12160.7kbits/s speframe= 5757 fps= 65 q=23.0 sizeframe= 5759 fps= 65 q=35.0 size=  142336KiB time=00:01:35.93 bitrate=12154.4kbits/s speframe= 5792 fps= 65 q=17.0 sizeframefram95 fps= 65 q=33.0 size=  142848KiB time=00:01:36.53 bitrate=12122.4kbits/s speframe= 5825 fps= 65 q=22.0 size=  14frame= 5831 fps= 65 q=26.0 size=  143360KiB time=00:01:37.13 bitrate=12090.7kbits/sframe= 5861 fps= 65 q=22.0 size=  141312KiB time=00:01:37.63 bitrate=11856.9kbits/s speed=1.09x elapsed=0:01:29.86    frame= 5893 fps= 65 q=24.0 size=  142080KiBframe= 5893 fps= 65 q=27.0 size=  145152KiB time=00:01:38.16 bitrate=12112.frame= 5929 fps= 65 q=22.0 sizeframeframe= 5931 fps= 65 q=26.0 size=  145920KiB time=00:01:38.80 bitrate=12099.0kbits/sframe= 5961 fps= 65 q=23.0 size=  14frame= 5967 fps= 65 q=26.0 size=  146688KiB time=00:01:39.40 bitrate=12089.2kbits/frame= 5997 fps= 65 q=21.0 sizeframe= 5999 fps= 65 q=29.0 size=  147456KiB time=00:01:39.93 bitrate=12087.7kbits/s speeframe= 6029 fps= 65 q=24.0 sizeframeframe= frame= 6029 fps= 65 q=29.0 size=  148736KiB time=00:01:40.43 bitrate=12131.frame= 6062 fps= 65 q=18.0 size=  146432KiB time=00:01:40.98 bitrate=11878.9kbits/s speed=1.09x elapsed=0:01:32.95    frame= 6097 fps= 65 q=25.0 sizeframe= 6099 fps= 65 q=24.0 size=  150016KiB time=00:01:41.60 bitrate=12095.8kbits/s speframe= 6131 fps= 65 q=27.0 size=  148224KiB time=00:01:42.13 bitrate=11888.9kbits/s speed=1.09x elapsed=0:01:33.98    frame= 6165 fps= 65 q=26.0 size=  14frame= 6171 fps= 65 q=24.0 size=  151808KiB time=00:01:42.80 bitrate=12097.4kbits/frame= 6200 fps= 65 q=24.0 sizeframe= 6203 fps= 65 q=25.0 size=  152576KiB time=00:01:43.33 bitrate=12095.8kbits/s speframe= 6233 fps= 65 q=23.0 size=  150528KiBframe= 6233 fps= 65 q=29.0 size=  153600KiB time=00:01:43.83 bitrate=12118.frame= 6268 fps= 65 q=19.0 sizeframeframe= 6271 fps= 65 q=26.0 size=  154368KiB time=00:01:44.46 bitrate=12105.1kbits/frame= 6301 fps= 65 q=21.0 size=  152064KiBframe= 6301 fps= 65 q=28.0 size=  155392KiB time=00:01:44.96 bitrate=12127.frame= 6337 fps= 65 q=21.0 sizeframe= 6339 fps= 65 q=26.0 size=  155904KiB time=00:01:45.60 bitrate=12094.4kbits/s speeframe= 6369 fps= 65 q=21.0 size=  15frame= 6375 fps= 65 q=25.0 size=  156928KiB time=00:01:46.20 bitrate=12105.0kbits/frame= 6405 fps= 65 q=21.0 sizeframe= 6407 frame= 6405 fps= 65 q=29.0 size=  157952KiB time=00:01:46.70 bitrate=12126.frame= 6437 fps= 65 q=22.0 sizeframeframe= 6443 fps= 65 q=25.0 size=  158720KiB time=00:01:47.33 bitrate=12114.0kbits/frame= 6472 fps= 65 q=18.0 sizeframe= 6475 fps= 65 q=25.0 size=  158976KiB time=00:01:47.86 bitrate=12073.5kbits/s speframe= 6505 fps= 65 q=26.0 sizeframe= 6507 fps= 65 q=26.0 size=  160256KiB time=00:01:48.40 bitrate=12110.9kbits/s speframe= 6538 fps= 65 q=19.0 sizeframeframe= frame= 6541 fps= 65 q=29.0 size=  161280KiB time=00:01:48.96 bitrate=12124.9frame= 6573 fps= 65 q=28.0 size=  15frame= frame= 6573 fps= 65 q=28.0 size=  162048KiB time=00:01:49.50 bitrate=12123.frame= 6607 fps= 65 q=25.0 sizeframe= 6611 fps= 65 q=23.0 size=  162560KiB time=00:01:50.13 bitrate=12091.6kbits/s speframe= 6641 fps= 65 q=29.0 sizeframe= 6643 fps= 65 q=22.0 size=  163328Ki5.3kbits/s speed=1.09x elapsed=0:01:41.72    frame= 6676 fps= 65 q=27.0 sizeframeframe= 6679 fps= 65 q=24.0 size=  164352KiB time=00:01:51.26 bitrate=12100.4kbits/frame= 6709 fps= 65 q=28.0 size=  162048KiB time=00:01:51.76 bitrate=11877.4kbits/s speed=1.09x elapsed=0:01:42.75    frame= 6741 fps= 65 q=26.0 size=  162816KiB time=00:01:52.30 bitrate=11877.0kbits/s speed=1.09x elapsed=0:01:43.26    frame= 6777 fps= 65 q=24.0 sizeframeframe= 6783 fps= 65 q=25.0 size=  166912KiB time=00:01:53.00 bitrate=12100.4kbits/frame= 6809 fps= 65 q=24.0 size=  16frame= frame= 68105 q=25.0 size=  167680KiB time=00:01:53.53 bitrate=12099.0kbits/frame= 6845 fps= 65 q=24.0 sizeframe= 6847 fps= 65 q=26.0 size=size=  168704KiB time=00:01:54.13 bitrate=12108.9kbits/frame= 6877 fps= 65 q=22.0 sizeframe= 6883 fps= 65 q=26.0 size=  169216KiB time=00:01:54.66 bitrate=12089.1kbits/s speframe= 6913 fps= 65 q=24.0 size=  167168KiB time=00:01:55.16 bitrate=11890.9kbits/s speed=1.09x elapsed=0:01:45.84    frame= 6947 fps= 65 q=25.0 sizeframe= 6951 fps= 65 q=25.0 size=  171008KiB time=00:01:55.80 bitrate=12097.6kbits/s speframe= 6981 fps= 65 q=22.0 sizeframeframe= 6987 fps= 65 q=27.0 size=  172032KiB time=00:01:56.40 bitrate=12107.3kbits/frame= 7017 fps= 65 q=25.0 size=  169728KiB time=00:01:56.90 bitrate=11894.0kbits/s speed=1.09x elapsed=0:01:47.40    frame= 7049 fps= 65 q=27.0 size=  170496KiB time=00:01:57.43 bitrate=11893.6kbits/s speed=1.09x elapsed=0:01:47.92    frame= 7085 fps= 65 q=25.0 size=  17frame= 7088 fps= 65 q=27.0 size=  174592KiB time=00:01:58.08 bitrate=12112.3kbits/frame= 7117 fps= 65 q=25.0 sizeframe= 7121 fps= 65 q=28.0 size=  175360KiB time=00:01:58.63 bitrate=12109.2kbits/s speeframe= 7153 fps= 65 q=23.0 size=  173056KiB time=00:01:59.16 bitrate=11896.6kbits/s speed=1.09x elapsed=0:01:49.46    frame= 7185 fps= 65 q=25.0 size=  17frame= 7191 fps= 65 q=24.0 size=  177152KiB time=00:01:59.80 bitrate=12113.8kbits/frame= 7221 fps= 65 q=24.0 size=  174592KiB time=00:02:00.30 bitrate=11889.1kbits/s speed=1.09x elapsed=0:01:50.49    frame= 7253 fps= 65 q=24.0 sizeframe= 7259 frame= 7255 fps= 65 q=30.0 size=  178944KiB time=00:02:00.86 bitrate=12128.frame= 7289 fps= 65 q=24.0 size=  176640KiBframe= 7289 fps= 65 q=27.0 size=  179712KiB time=00:02:01sed=0:01:51.53  3.frame= 7321 fps= 65 q=22.0 size=  17frame= 7327 fps= 65 q=27.0 size=  180480KiB time=00:02:02.06 bitrate=12112.2kbits/frame= 7357 fps= 65 q=23.0 sizeframe= 7359 frame= 7357 fps= 65 q=27.0 size=  181504KiB time=00:02:02.56 bitrate=12131.frame= 7389 fps= 65 q=22.0 sizeframeframe= 7395 fps= 65 q=27.0 size=  182272KiB time=00:02:03.20 bitrate=12119.9kbits/frame= 7425 fps= 65 q=22.0 sizeframeframe= 7431 fps= 65 q=27.0 size=  183040KiB time=00:02:03.80 bitrate=12112.0kbits/frame= 7457 fps= 65 q=20.0 size=  180224KiBframe= 7457 fps= 65 q=24.0 size=  183808KiB time=00:02:04.23 bitrate=12120.frame= 7493 fps= 65 q=23.0 sizeframeframe= frame= 7493 fps= 65 q=27.0 size=  184576KiB time=00:02:04.83 bitrate=12112.frame= 7525 fps= 65 q=26.0 sizeframe= 7527 fps= 65 q=31.0 size=  185856KiB time=00:02:05.40 bitrate=12141.4kbits/s speframe= 7561 fps= 65 q=25.0 sizeframe= 7563 frame= 7561 fps= .0 size=  186624KiB time=00:02:06.05 bitrate=12128.7kbits/frame= 7593 fps= 65 q=26.0 sizeframeframe= frame= 7593 fps= 65 q=29.0 size=  187136KiB time=00:02:06.50 bitrate=12118.frame= 7629 fps= 65 q=27.0 sizeframeframe= frame= 7629 fps= 65 q=29.0 size=  188160KiB time=00:02:07.10 bitrate=12127.frame= 7661 fps= 65 q=27.0 size=  18560me= 7667 fps= 65 q=20.0 size=  188672KiB time=00:02:07.73 bitrate=12100.2kbits/frame= 7697 fps= 65 q=27.0 sizeframe= 7699 fps= 65 q=29.0 size=  189696KiB time=00:02:08.26 bitrate=12115.3kbits/s speframe= 7729 fps= 65 q=26.0 sizeframeframe= frame= 7729 fps= 65 q=29.0 size=  190464KiB time=00:02:08.76 bitrate=12117.frame= 7765 fps= 65 q=24.0 size=  18frame= 7771 fps= 65 q=25.0 size=  191488KiB time=00:02:09.46 bitrate=12116.4kbits/frame= 7797 fps= 65 q=23.0 sizeframe= 7799 frame= 7797 fps= 65 q=27.0 size=  192256KiB time=00:02:09.90 bitrate=12124.frame= 7831 fps= 65 q=26.0 size=  18frame= 7835 fps= 65 q=24.0 size=  193024KiB time=00:02:10.53 bitrate=12113.8kbits/frame= 7865 fps= 65 q=26.0 sizeframe= 7867 frame= 7865 fps= 65 q=27.0 size=  194048KiB time=00:02:11.03 bitrate=12131.6frame= 7898 fps= 65 q=27.0 size=  191488KiBframe= 7901 fps= 65 q=27.0 size=  195072KiB time=00:02:11.63 bitrate=12140.0frame= 7933 fps= 65 q=24.0 size=  192256KiB time=00:02:12.16 bitrate=11916.5kbits/s speed=1.09x elapsed=0:02:01.33    frame= 7966 fps= 65 q=26.0 sizeframe= 7971 fps= 65 q=30.0 size=  196352KiB time=00:02:12.80 bitrate=12112.3kbits/s speeframe= 8001 fps= 65 q=20.0 sizeframeframe= 8007 fps= 65 q=22.0 size=  197376KiB time=00:02:13.40 bitrate=12120.7kbits/frame= 8033 fps= 65 q=27.0 sizeframeframe= 8039 fps= 65 q=23.0 size=  198144KiB time=00:02:13.93 bitrate=12119.4kbits/frame= 8069 fps= 65 q=26.0 sizeframeframe= 8075 fps= 65 q=24.0 size=  198912KiB time=00:02:14.53 bitrate=12112.1kbits/frame= 8101 fps= 65 q=26.0 size=  19frame= 8107 fps= 65 q=24.0 size=  199680KiB time=00:02:15.06 bitrate=12110.9kbits/frame= 8137 fps= 65 q=24.0 size=  197120KiB time=00:02:15.56 bitrate=11911.5kbits/s speed=1.09x elapsed=0:02:04.41    frame= 8169 fps= 65 q=25.0 sizeframeframe= 8175 fps= 65 q=23.0 size=  201472KiB time=00:02:16.20 bitrate=12117.9kbits/frame= 8205 fps= 65 q=28.0 sizeframeframe= 8209 fps= 65 q=24.0 size=  202240KiB time=00:02:16.76 bitrate=12113.7kbits/sframe= 8237 fps= 65 q=27.0 sizeframe= 8242 fps= 65 q=25.0 size=  203008KiB time=00:02:17.31 bitrate=12111.0kbits/s speframe= 8273 fps= 65 q=23.0 sizeframeframe= 8278 fps= 65 q=24.0 size=  204032KiB time=00:02:17.91 bitrate=12119.1kbits/frame= 8305 fps= 65 q=25.0 sizeframeframe= 8311 fps= 65 q=25.0 size=  204800KiB time=00:02:18.46 bitrate=12116.4kbits/frame= 8341 fps= 65 q=24.0 sizeframe= 8343 frame= 8341 fps= 65 q=28.0 size=  205824KiB time=00:02:18.96 bitrate=12133.frame= 8373 fps= 65 q=22.0 sizeframe= 8375 fps= 65 q=23.0 size=  206080KiB time=00:02:19.53 bitrate=12099.0kbits/s speframe= 8409 fps= 65 q=23.0 sizeframeframe= 8415 fps= 65 q=25.0 size=  207360KiB time=00:02:20.20 bitrate=12116.2kbits/frame= 8441 fps= 65 q=23.0 sizeframe= 8443 frame= 8441 fps= 65 q=25.0 size=  208128KiB time=00:02:20.63 bitrate=12123.frame= 8477 fps= 65 q=23.0 size=  205568KiB time=00:02:21.23 bitrate=11923.6kbits/s speed=1.09x elapsed=0:02:09.58    frame= 8509 fps= 65 q=26.0 sizeframeframe= 8515 fps= 65 q=24.0 size=  209920KiB time=00:02:21.86 bitrate=12121.7kbits/frame= 8545 fps= 65 q=27.0 sizeframe= 8547 fps= 65 q=23.0 size=  210432KiB time=00:02:22.40 bitrate=12105.8kbits/s speframe= 8577 fps= 65 q=28.0 size=  208128KiBframe= 8577 fps= 65 q=30.0 size=  211712KiB time=00:02:22.90 bitrate=12136.8frame= 8613 fps= 65 q=25.0 size=  20frame= 8619 fps= 65 q=23.0 size=  212480KiB time=00:02:23.60 bitrate=12121.4kbits/sframe= 8645 fps= 65 q=26.0 size=  20frame= frame= 8645 fps= 65 q=31.0 size=  213504KiB time=00:02:24.03 bitrate=12143.frame= 8681 fps= 65 q=27.0 sizeframeframe= 8683 fps= 65 q=23.0 size=  214016KiB time=00:02:24.66 bitrate=12119.0kbits/frame= 8713 fps= 65 q=25.0 size=  21frame= 8719 fps= 65 q=22.0 size=  214784KiB time=00:02:25.26 bitrate=12112.3kbits/frame= 8749 fps= 65 q=27.0 sizeframe= 8751 fps= 65 q=18.0 size=  215552KiB time=00:02:25.80 bitrate=12111.1kbits/s speframe= 8781 fps= 65 q=23.0 size=  213248KiB time=00:02:26.30 bitrate=11940.7kbits/s speed=1.09x elapsed=0:02:14.22    frame= 8814 fps= 65 q=26.0 sizeframe= 8819 frame= 8817 fps= 65 q=31.0 size=  218112KiB time=00:02:26.90 bitrate=12163.frame= 8849 fps= 65 q=22.0 size=  21frame= 8855 fps= 65 q=25.0 size=  218112KiB time=00:02:27.53 bitrate=12111.0kbits/sframe= 8884 fps= 65 q=21.0 sizeframe= 8887 fps= 65 q=22.0 size=  218880KiB time=00:02:28.06 bitrate=12109.9kbits/s speframe= 8917 fps= 65 q=26.0 size=  216576KiBframe= 8917 fps= 65 q=31.0 size=  220416KiB time=00:02:28.56 bitrate=12153.frame= 8952 fps= 65 q=22.0 sizeframe= 8955 fps= 65 q=27.0 size=  220672KiB time=00:02:29.20 bitrate=12116.3kbits/s speframe= 8985 fps= 65 q=26.0 size=  21frame= 8991 fps= 65 q=25.0 size=  221440KiB time=00:02:29.80 bitrate=12109.7kbits/frame= 9021 fps= 65 q=27.0 size=  219136KiB time=00:02:30.30 bitrate=11943.9kbits/s speed=1.09x elapsed=0:02:17.83    frame= 9053 fps= 65 q=28.0 size=  219904KiB time=00:02:30.83 bitrate=11943.3kbits/s speed=1.09x elapsed=0:02:18.34    frame= 9089 fps= 65 q=27.0 size=  220672KiB time=00:02:31.43 bitrate=11937.6kbits/s speed=1.09x elapsed=0:02:18.86    frame= 9121 fps= 65 q=27.0 size=  221440KiB time=00:02:31.96 bitrate=11937.1kbits/s speed=1.09x elapsed=0:02:19.37    frame= 9157 fps= 65 q=25.0 sizeframe= 9159 fps= 65 q=26.0 size=  225792KiB time=00:02:32.60 bitrate=12121.2kbits/s speframe= 9189 fps= 65 q=27.0 sizeframeframe= 9195 fps= 66 q=21.0 size=  226560KiB time=00:02:309x elapsed=0:0214.8kbits/frame= 9225 fps= 65 q=27.0 sizeframe= 9227 frame= 9225 fps= 65 q=31.0 size=  227584KiB time=00:02:33.ed=0:02:20.92   .frame= 9257 fps= 65 q=23.0 size=  225024KiB time=00:02:34.23 b q=27.0 size=  228608KiB time=00:02:34.23 bitrate=12142.frame= 9293 fps= 65 q=23.0 sizeframeframe= frame= 9293 fps= 65 q=27.0 size=  229376KiB time=00:02:34.83 bitrate=12135.frame= 9325 fps= 65 q=26.0 sizeframe= 9327 fps= 65 q=28.0 size=  229888KiB time=00:02:35.40 bitrate=12118.7kbits/s speframe= 9361 fps= 65 q=24.0 sizeframeframe= frame= 9361 fps= 65 q=28.0 size=  230912KiB time=00:02:35.96 bitrate=12128.frame= 9393 fps= 65 q=22.0 size=  22frame= frame= 9393 fps= 65 q=25.0 size=  231680KiB time=00:02:36.50 bitrate=12127.frame= 9429 fps= 65 q=23.0 sizeframe= 9431 fps= 65 q=29.0 size=  232448KiB time=00:02:37.13 bitrate=12118.5kbits/s speeframe= 9461 fps= 65 q=25.0 sizeframeframe= 9467 fps= 66 q=25.0 size=  233472KiB time=00:02:37.73 bitrate=12125.5kbits/frame= 9497 fps= 65 q=24.0 sizeframeframe= 9503 fps= 66 q=25.0 size=  234496KiB time=00:02:38.33 bitrate=12132.6kbits/frame= 9529 fps= 65 q=26.0 size=  231680KiB time=00:02:38.76 bitrate=11954.2kbits/s speed=1.09x elapsed=0:02:25.56    frame= 9565 fps= 65 q=24.0 sizeframe= 9567 frame= 9565 fps= 66 q=30.0 size=  236032KiB time=00:02:39.36 bitrate=12132.frame= 9597 fps= 65 q=25.0 size=  23frame= 9603 fps= 66 q=23.0 size=  236800KiB time=00:02:40.00 bitrate=12124.2kbits/frame= 9633 fps= 65 q=27.0 sizeframe= 9635 fps= 65 q=19.0 size=  236800KiB time=00:02:40.53 bitrate=12083.9kbits/s speframe= 9666 fps= 65 q=21.0 size=  23frame= frame= 9669 fps= 66 q=30.0 size=  238592KiB time=00:02:41.10 bitrate=12132.frame= 9701 fps= 65 q=27.0 size=  23frame= frame= 9701 fps= 66 q=27.0 size=  239360KiB time=00:02:41.63 bitrate=12131.frame= 9735 fps= 65 q=22.0 size=  236544KiB time=00:02:42.20 bitrate=11946.8kbits/s speed=1.09x elapsed=0:02:28.66    frame= 9769 fps= 65 q=23.0 size=  237568KiB time=00:02:42.76 bitrate=11956.7kbits/s speed=1.09x elapsed=0:02:29.17    frame= 9805 fps= 65 q=26.0 size=  238592KiB time=00:02:43.36 bitrate=11964.2kbits/s speed=1.09x elapsed=0:02:29.69    frame= 9837 fps= 65 q=24.0 sizeframe= 9839 fps= 66 q=20.0 size=  241152KiB time=00:02:43.93 bitrate=12050.7kbits/s speframe= 9873 fps= 66 q=23.0 sizeframe= 9875 frame= 9873 fps= 66 q=24.0 size=  243456KiB time=00:02:44.50 bitrate=12124.0frame= 9905 fps= 65 q=21.0 sizeframe= 9911 fps= 66 q=20.0 size=  242688KiB time=00:02:45.=1.09x elapsed=0.4kbits/s speframe= 9941 fps= 65 q=22.0 size=  241408KiB time=00:02:45.63 bitrate=11939.7kbits/s speed=1.09x elapsed=0:02:31.77    frame= 9973 fps= 65 q=25.0 size=  242432KiBframe= 9975 fps= 66 q=29.0 size=  246016KiB time=00:02:46.20 bitrate=12126.1frame=10009 fps= 66 q=28.0 sizeframe=10011 fps= 66 q=19.0 size=  244992KiB time=00:02:46.80 bitrate=12032.2kbits/s speframe=10041 fps= 65 q=29.0 size=  24frame=10047 fps= 66 q=25.0 size=  247808KiB time=00:02:47.40 bitrate=12126.9kbits/sframe=10077 fps= 66 q=26.0 size=  24frame=10083 fps= 66 q=26.0 size=  248832KiB time=00:02:48.00 bitrate=12133.5kbits/sframe=10109 fps= 65 q=25.0 sizeframeframe=10115 fps= 66 q=26.0 size=  249600KiB time=00:02:48.53 bitrate=12132.5kbits/frame=10145 fps= 66 q=26.0 sizeframe=101e=10151 fps= 66 q=23.0 size=  250368KiB time=00:d=1.09x elapsed==12126.6kbits/frame=10177 fps= 65 q=25.0 sizeframe=10183 fps= 66 q=19.0 size=  248064KiB time=00:02:49.66 bitrate=11977.3kbits/s speframe=10213 fps= 66 q=26.0 size=  248320KiBframe=10213 fps= 66 q=28.0 size=  251904KiB time=00:02:50.16 bitrate=12126.9frame=10247 fps= 66 q=22.0 sizeframeframe=10251 fps= 66 q=15.0 size=  252672KiB time=00:02:50.80 bitrate=12118.8kbits/frame=10281 fps= 66 q=23.0 size=  24frame=10287 fps= 66 q=25.0 size=  253696KiB time=00:02:51.40 bitrate=12125.3kbits/frame=10317 fps= 66 q=22.0 sizeframe=10319 frame=10317 fps= 66 q=25.0 size=  254464KiB time=00:02:51.90 bitrate=12126.frame=10349 fps= 66 q=23.0 size=  251648KiB time=00:02:52.43 bitrate=11955.3kbits/s speed=1.09x elapsed=0:02:37.94    frame=10385 fps= 66 q=23.0 sizeframeframe=10391 fps= 66 q=26.0 size=  256256KiB time=00:02:53.13 bitrate=12125.0kbits/frame=10417 fps= 66 q=23.0 size=  253184KiB time=00:02:53.56 bitrate=11949.8kbits/s speed=1.09x elapsed=0:02:38.98    frame=10453 fps= 66 q=23.0 sizeframeframe=10459 fps= 66 q=27.0 size=  258048KiB time=00:02:54.26 bitrate=12130.4kbits/frame=10485 fps= 66 q=23.0 size=  25frame=10491 fps= 66 q=26.0 size=  258816KiB time=00:02:54.80 bitrate=12129.4kbits/frame=10521 fps= 66 q=28.0 sizeframe=10523 frame=10521 fps= 66 q=30.0 size=  259840KiB time=00:02:55.30 bitrate=12142.frame=10553 fps= 66 q=28.0 size=  256768KiB time=00:02:55.83 bitrate=11962.7kbits/s speed=1.09x elapsed=0:02:41.04    frame=10589 fps= 66 q=26.0 sizeframeframe=1frame=10589 fps= 66 q=29.0 size=  261376KiB time=00:02:56.43 bitrate=12136.frame=10621 fps= 66 q=25.0 size=  258304KiB time=00:02:56.96 bitrate=11957.2kbits/s speed=1.09x elapsed=0:02:42.07    frame=10657 fps= 66 q=25.0 sizeframe=10659 fps= 66 q=23.0 size=  258048KiB time=00:02:57.60 bitrate=11902.8kbits/s speframe=10689 fps= 66 q=26.0 sizeframeframe=10695 fps= 66 q=23.0 size=  263680KiB time=00:02:58.20 bitrate=12121.6kbits/sframe=10725 fps= 66 q=22.0 sizeframe=10727 frame=10725 fps= 66 q=27.0 size=  264448KiB time=00:02:58.70 bitrate=12122.frame=10758 fps= 66 q=25.0 sizeframeframe=10763 fps= 66 q=25.0 size=  265472KiB time=00:02:59.33 bitrate=12126.8kbits/frame=10793 fps= 66 q=25.0 sizeframe=10795 fps= 66 q=26.0 size=  261376KiB time=00:02:59.86 bitrate=11904.3kbits/s speframe=10826 fps= 66 q=24.0 sizeframe=10831 fps= 66 q=24.0 size=  262144KiB time=00:03:00.46 bitrate=11899.6kbits/s speframe=10861 fps= 66 q=21.0 sizeframeframe=1frame=10861 fps= 66 q=28.0 size=  268288KiB time=00:03:00.96 bitrate=12144.frame=10895 fps= 66 q=27.0 sizeframeframe=1frame=10897 fps= 66 q=28.0 size=  269056KiB time=00:03:01.56 bitrate=12139.frame=10929 fps= 66 q=25.0 sizeframeframe=10935 fps= 66 q=26.0 size=  269568KiB time=00:03:02.20 bitrate=12120.2kbits/frame=10964 fps= 66 q=20.0 size=  266752KiB time=00:03:02.68 bitrate=11961.9kbits/s speed=1.09x elapsed=0:02:47.23    frame=10997 fps= 66 q=23.0 size=  26frame=1frame=10997 fps= 66 q=27.0 size=  271360KiB time=00:03:03.23 bitrate=12132.frame=11033 fps= 66 q=27.0 sizeframe=11035 fps= 66 q=24.0 size=  267264KiB time=00:03:03.86 bitrate=11907.7kbits/s speeframe=11065 fps= 66 q=27.0 size=  26frame=1frame=11066 fps= 66 q=24.0 size=  273408KiB time=00:03:04.38 bitrate=12147.frame=11101 fps= 66 q=27.0 sizeframeframe=1frame=11101 fps= 66 q=32.0 size=  274432KiB time=00:03:04.96 bitrate=12154.frame=11133 fps= 66 q=27.0 sizeframeframe=11139 fps= 66 q=22.0 size=  274688KiB time=00:03:05.60 bitrate=12124.2kbits/frame=11169 fps= 66 q=24.0 size=  271616KiBframe=11169 fps= 66 q=33.0 size=  275968KiB time=00:03:06.10 bitrate=12147.frame=11201 fps= 66 q=26.0 sizeframe=11205 fps= 66 q=27.0 size=  271360KiB time=00:03:06.70 bitrate=11906.7kbits/s speframe=11237 fps= 66 q=27.0 sizeframeframe=11240 fps= 66 q=25.0 size=  277248KiB time=00:03:07.26 bitrate=12128.2kbits/frame=11269 fps= 66 q=25.0 size=  274432KiB time=00:03:07.76 bitrate=11973.1kbits/s speed=1.09x elapsed=0:02:51.87    frame=11305 fps= 66 q=23.0 sizeframe=11307 fps= 66 q=26.0 size=  273920KiB time=00:03:08.40 bitrate=11910.6kbits/s speframe=11338 fps= 66 q=27.0 sizeframeframe=11343 fps= 66 q=24.0 size=  279808KiB time=00:03:09.00 bitrate=12128.0kbits/frame=11373 fps= 66 q=23.0 size=  276736KiB time=00:03:09.50 bitrate=11963.2kbits/s speed=1.09x elapsed=0:02:53.42    frame=11406 fps= 66 q=28.0 sizeframeframe=1frame=11407 fps= 66 q=31.0 size=  281600KiB time=00:03:10.06 bitrate=12137.frame=11441 fps= 66 q=25.0 sizeframe=11443 frame=11441 fps= 66 q=27.0 size=  282368KiB time=00:03:10.63 bitrate=12134.frame=11473 fps= 66 q=25.0 size=  279296KiB time=00:03:11.16 bitrate=11968.6kbits/s speed=1.09x elapsed=0:02:54.97    frame=11509 fps= 66 q=26.0 sizeframe=11511 fps= 66 q=22.0 size=  279040KiB time=00:03:11.80 bitrate=11918.1kbits/s speframe=11541 fps= 66 q=25.0 sizeframe=11547 fps= 66 q=22.0 size=  279808KiB time=00:03:12.40 bitrate=11913.7kbits/s speframe=11577 fps= 66 q=23.0 sizeframe=11579 frame=11577 fps= 66 q=29.0 size=  285696KiB time=00:03:12.90 bitrate=12132.frame=11609 fps= 66 q=22.0 sizeframeframe=11615 fps= 66 q=22.0 size=  286464KiB time=00:03:13.53 bitrate=12125.6kbits/frame=11645 fps= 66 q=25.0 size=  283392KiB time=00:03:14.03 bitrate=11964.7kbits/s speed=1.09x elapsed=0:02:57.55    frame=11677 fps= 66 q=23.0 size=  28frame=1frame=11679 fps= 66 q=28.0 size=  288256KiB time=00:03:14.60 bitrate=12134.frame=11713 fps= 66 q=26.0 sizeframeframe=11719 fps= 66 q=24.0 size=  289024KiB time=00:03:15.26 bitrate=12125.4kbits/frame=11745 fps= 66 q=27.0 size=  285952KiB time=00:03:15.70 bitrate=11969.9kbits/s speed=1.09x elapsed=0:02:59.09    frame=11781 fps= 66 q=24.0 sizeframe=11783 fps= 66 q=26.0 size=  285696KiB time=00:03:16.33 bitrate=11920.7kbits/s speframe=11815 fps= 66 q=27.0 size=  28frame=11819 fps= 66 q=23.0 size=  291328KiB time=00:03:16.93 bitrate=12118.6kbits/frame=11849 fps= 66 q=23.0 sizeframe=11851 fps= 66 q=27.0 size=  287488KiB time=00:03:17.46 bitrate=11926.6kbits/s speframe=11885 fps= 66 q=24.0 sizeframeframe=11887 fps= 66 q=25.0 size=  293376KiB time=00:03:18.06 bitrate=12134.0kbits/frame=11917 fps= 66 q=22.0 size=  290304KiBframe=11917 fps= 66 q=26.0 size=  294144KiB time=00:03:18.56 bitrate=12135.1frame=11953 fps= 66 q=26.0 size=  29frame=1frame=11953 fps= 66 q=25.0 size=  294912KiB time=00:03:19.16 bitrate=12130.frame=11985 fps= 66 q=26.0 sizeframeframe=1frame=11985 fps= 66 q=24.0 size=  295680KiB time=00:03:19.70 bitrate=12129.frame=12020 fps= 66 q=27.0 size=  292864KiBframe=12021 fps= 66 q=31.0 size=  296960KiB time=00:03:20.30 bitrate=12145.frame=12053 fps= 66 q=24.0 sizeframeframe=1frame=12053 fps= 66 q=31.0 size=  297728KiB time=00:03:20.83 bitrate=12144.frame=12089 fps= 66 q=27.0 sizeframe=12091 fps= 66 q=23.0 size=  293376KiB time=00:03:21.46 bitrate=11929.2kbits/s speframe=12121 fps= 66 q=28.0 sizeframeframe=1frame=12121 fps= 66 q=32.0 size=  299264KiB time=00:03:21.96 bitrate=12138.frame=12157 fps= 66 q=28.0 size=  296192KiB time=00:03:22.56 bitrate=11978.3kbits/s speed=1.09x elapsed=0:03:05.28    frame=12193 fps= 66 q=26.0 sizeframe=12195 fps= 66 q=22.0 size=  295680KiB time=00:03:23.20 bitrate=11920.3kbits/s speeframe=12233 fps= 66 q=25.0 size=  297728KiB time=00:03:23.83 bitrate=11965.6kbits/s speed=1.09x elapsed=0:03:06.31    frame=12270 fps= 66 q=24.0 size=  29frame=12275 fps= 66 q=27.0 size=  302848KiB time=00:03:24.53 bitrate=12129.7kbits/frame=12311 fps= 66 q=23.0 sizeframe=12315 fps= 66 q=24.0 size=  298752KiB time=00:03:25.20 bitrate=11926.8kbits/s speframe=12349 fps= 66 q=24.0 size=  300800KiB time=00:03:25.76 bitrate=11975.5kbits/s speed= 1.1x elapsed=0:03:07.85    frame=12389 fps= 66 q=25.0 size=  30frame=1frame=12391 fps= 66 q=30.0 size=  305920KiB time=00:03:26.46 bitrate=12138.frame=12429 fps= 66 q=26.0 size=  302848KiB time=00:03:27.10 bitrate=11979.4kbits/s speed= 1.1x elapsed=0:03:08.88    frame=12469 fps= 66 q=26.0 size=  303872KiBframe=12469 fps= 66 q=27.0 size=  307712KiB time=00:03:27.76 bitrate=12132.frame=12509 fps= 66 q=27.0 size=  304896KiB time=00:03:28.43 bitrate=11983.2kbits/s speed= 1.1x elapsed=0:03:09.93    frame=12549 fps= 66 q=26.0 size=  305664KiBframe=12552 fps= 66 q=31.0 size=  310016KiB time=00:03:29.15 bitrate=12142.frame=12589 fps= 66 q=27.0 size=  30frame=1frame=12589 fps= 66 q=29.0 size=  310784KiB time=00:03:29.76 bitrate=12137.frame=12629 fps= 66 q=29.0 size=  307968KiB time=00:03:30.43 bitrate=11988.9kbits/s speed= 1.1x elapsed=0:03:11.49    frame=12669 fps= 66 q=29.0 size=  308736KiB time=00:03:31.10 bitrate=11980.9kbits/s speed= 1.1x elapsed=0:03:11.99    frame=12709 fps= 66 q=27.0 size=  30frame=12715 fps= 66 q=23.0 size=  313600KiB time=00:03:31.86 bitrate=12125.6kbits/frame=12749 fps= 66 q=29.0 sizeframe=12751 fps= 66 q=14.0 size=  309248KiB time=00:03:32.46 bitrate=11923.6kbits/s speframe=12789 fps= 66 q=25.0 sizeframe=12791 fps= 66 q=27.0 size=  310784KiB time=00:03:33.13 bitrate=11945.3kbits/s speframe=12829 fps= 66 q=25.0 size=  312576KiB time=00:03:33.76 bitrate=11978.6kbits/s speed= 1.1x elapsed=0:03:14.06    frame=12869 fps= 66 q=26.0 sizeframe=12871 fps= 66 q=27.0 size=  312576KiB time=00:03:34.46 bitrate=11939.5kbits/s speframe=12909 fps= 66 q=23.0 sizeframe=12911 fps= 66 q=25.0 size=  313344KiB time=00:03:35.13 bitrate=11931.7kbits/s speframe=12949 fps= 66 q=22.0 size=  315392KiBframe=12949 fps= 66 q=24.0 size=  319488KiB time=00:03:35.76 bitrate=12130.frame=12989 fps= 66 q=22.0 sizeframe=12991 fps= 66 q=25.0 size=  315392KiB time=00:03:36.46 bitrate=11935.7kbits/s speframe=13029 fps= 66 q=25.0 size=  31frame=1frame=13029 fps= 66 q=28.0 size=  321536KiB time=00:03:37.10 bitrate=12132.frame=13069 fps= 66 q=25.0 sizeframe=13071 fps= 66 q=26.0 size=  317696KiB time=00:03:37.80 bitrate=11949.3kbits/s speframe=13109 fps= 66 q=28.0 size=  31frame=1frame=13109 fps= 66 q=27.0 size=  323584KiB time=00:03:38.43 bitrate=12135.frame=13149 fps= 66 q=27.0 size=  320512KiB time=00:03:39.10 bitrate=11983.7kbits/s speed=1.11x elapsed=0:03:18.20    frame=13189 fps= 66 q=26.0 size=  321536KiB time=00:03:39.76 bitrate=11985.5kbits/s speed=1.11x elapsed=0:03:18.71    frame=13229 fps= 66 q=26.0 sizeframe=13231 frame=13229 fps= 66 q=29.0 size=  326400KiB time=00:03:40.43 bitrate=12130.frame=13267 fps= 66 q=25.0 size=  32frame=13271 fps= 66 q=26.0 size=  327424KiB time=00:03:41.13 bitrate=12129.6kbits/frame=13309 fps= 66 q=23.0 size=  32frame=1frame=13309 fps= 66 q=27.0 size=  328704KiB time=00:03:41.76 bitrate=12142.frame=13345 fps= 66 q=22.0 sizeframeframe=13351 fps= 67 q=24.0 size=  329472KiB time=00:03:42.46 bitrate=12132.3kbits/frame=13386 fps= 66 q=27.0 sizeframeframe=13391 fps= 67 q=26.0 size=  330496KiB time=00:03:43.13 bitrate=12133.7kbits/frame=13429 fps= 67 q=22.0 size=  32frame=1frame=13429 fps= 67 q=26.0 size=  331520KiB time=00:03:43.76 bitrate=12136.frame=13477 fps= 67 q=22.0 size=  32frame=13483 fps= 67 q=26.0 size=  332800KiB time=00:03:44.66 bitrate=12134.9kbits/frame=13529 fps= 67 q=27.0 size=  329984KiB time=00:03:45.43 bitrate=11991.3kbits/s speed=1.11x elapsed=0:03:22.84    frame=13577 fps= 67 q=26.0 size=  331264KiBframe=13563:46.23 bitrate=11995.2kbits/s speed=1.11x elapsed=0:03:23.35    frame=13625 fps= 67 q=25.0 size=  332288KiB time=00:03:47.03 bitrate=11989.9kbits/s speed=1.11x elapsed=0:03:23.88    frame=13671 fps= 67 q=24.0 size=  33frame=13675 fps= 67 q=22.0 size=  337408KiB time=00:03:47.86 bitrate=12130.1kbits/sframe=13721 fps= 67 q=25.0 size=  33frame=1frame=13707 fps= 67 q=26.0 size=  338432KiB time=00:03:48.40 bitrate=12138.5frame=13766 fps= 67 q=24.0 size=  33frame=13771 fps= 67 q=27.0 size=  339968KiB time=00:03:49.46 bitrate=12136.9kbits/frame=13814 fps= 67 q=25.0 size=  336896KiB time=00:03:50.18 bitrate=11989.8kbits/s speed=1.12x elapsed=0:03:25.94    frame=13861 fps= 67 q=23.0 size=  33frame=13867 fps= 67 q=26.0 size=  342272KiB time=00:03:51.06 bitrate=12134.6kbits/frame=13909 fps= 67 q=24.0 size=  33frame=1frame=13899 fps= 67 q=30.0 size=  343040KiB time=00:03:51.60 bitrate=12133.frame=13957 fps= 67 q=23.0 size=  34frame=1frame=13943 fps= 67 q=28.0 size=  344064KiB time=00:03:52.33 bitrate=12131.6frame=14005 fps= 67 q=25.0 size=  341760KiBframe=13991 fps= 67 q=31.0 size=  345600KiB time=00:03:53.13 bitrate=12143.frame=14053 fps= 67 q=28.0 size=  34frame=14055 fps= 67 q=25.0 size=  346880KiB time=00:03:54.20 bitrate=12133.4kbits/frame=14097 fps= 67 q=28.0 size=  34frame=14103 fps= 67 q=25.0 size=  348160KiB time=00:03:55.00 bitrate=12136.7kbits/frame=14145 fps= 68 q=28.0 size=  34frame=1frame=14135 fps= 67 q=28.0 size=  349184KiB time=00:03:55.53 bitrate=12144.frame=14193 fps= 68 q=28.0 size=  346368KiB time=00:03:56.50 bitrate=11997.7kbits/s speed=1.13x elapsed=0:03:30.05    frame=14241 fps= 68 q=28.0 size=  347392KiBframe=14229 fps= 68 q=27.0 size=  350976KiB time=00:03:57.10 bitrate=12126.frame=14289 fps= 68 q=24.0 size=  34frame=1frame=14279 fps= 68 q=28.0 size=  352512KiB time=00:03:57.93 bitrate=12136.frame=14337 fps= 68 q=24.0 size=  349952KiB time=00:03:58.90 bitrate=12000.0kbits/s speed=1.13x elapsed=0:03:31.63    frame=14385 fps= 68 q=26.0 size=  351232KiB time=00:03:59.70 bitrate=12003.7kbits/s speed=1.13x elapsed=0:03:32.13    frame=14433 fps= 68 q=24.0 size=  352256KiB time=00:04:00.50 bitrate=11998.7kbits/s speed=1.13x elapsed=0:03:32.66    frame=14481 fps= 68 q=23.0 size=  35frame=14483 fps= 68 q=24.0 size=  357376KiB time=00:04:01.33 bitrate=12131.0kbits/frame=14529 fps= 68 q=26.0 size=  35frame=14531 fps= 68 q=22.0 size=  358656KiB time=00:04:02.13 bitrate=12134.3kbits/frame=14575 fps= 68 q=22.0 size=  35frame=1frame=14563 fps= 68 q=25.0 size=  359424KiB time=00:04:02.66 bitrate=12133.frame=14625 fps= 68 q=24.0 size=  356864KiB time=00:04:03.70 bitrate=11996.0kbits/s speed=1.13x elapsed=0:03:34.72    frame=14669 fps= 68 q=25.0 size=  358144KiB time=00:04:04.43 bitrate=12002.9kbits/s speed=1.14x elapsed=0:03:35.23    frame=14717 fps= 68 q=26.0 size=  359424KiB time=00:04:05.23 bitrate=12006.5kbits/s speed=1.14x elapsed=0:03:35.74    frame=14765 fps= 68 q=24.0 size=  360448KiB time=00:04:06.03 bitrate=12001.6kbits/s speed=1.14x elapsed=0:03:36.27    frame=14813 fps= 68 q=24.0 size=  361728KiB time=00:04:06.83 bitrate=12005.2kbits/s speed=1.14x elapsed=0:03:36.77    frame=14861 fps= 68 q=22.0 size=  362752KiB time=00:04:07.63 bitrate=12000.3kbits/s speed=1.14x elapsed=0:03:37.30    frame=14906 fps= 68 q=26.0 size=  36frame=1frame=14895 fps= 68 q=33.0 size=  367872KiB time=N/A bitrate=N/A speed=N/A frame=14965 fps= 69 q=24.0 size=  36frame=14967 fps= 69 q=23.0 size=  369152KiB time=00:04:09.40 bitrate=12125.5kbits/frame=15021 fps= 69 q=26.0 size=  366848KiB time=00:04:10.30 bitrate=12006.5kbits/s speed=1.14x elapsed=0:03:38.84    frame=15081 fps= 69 q=27.0 size=  36frame=15085 fps= 69 q=24.0 size=  372224KiB time=00:04:11.36 bitrate=12130.7kbits/frame=15141 fps= 69 q=26.0 size=  369664KiB time=00:04:12.30 bitrate=12002.7kbits/s speed=1.15x elapsed=0:03:39.87    frame=15201 fps= 69 q=26.0 size=  371200KiB time=00:04:13.30 bitrate=12005.0kbits/s speed=1.15x elapsed=0:03:40.38    frame=15261 fps= 69 q=24.0 size=  37frame=15264 fps= 69 q=17.0 size=  376576KiB time=00:04:14.33 bitrate=12129.4kbits/frame=15318 fps= 69 q=25.0 size=  374016KiB time=00:04:15.23 bitrate=12004.5kbits/s speed=1.15x elapsed=0:03:41.41    frame=15378 fps= 69 q=25.0 size=  37frame=15383 fps= 69 q=24.0 size=  379392KiB time=00:04:16.33 bitrate=12124.8kbits/frame=15437 fps= 69 q=25.0 size=  377088KiB time=00:04:17.23 bitrate=12009.0kbits/s speed=1.16x elapsed=0:03:42.45    frame=15497 fps= 70 q=22.0 size=  37frame=15501 fps= 70 q=15.0 size=  382464KiB time=00:04:18.30 bitrate=12129.9kbits/frame=15588 fps= 70 q=26.0 size=  38frame=15544 fps= 70 q=23.0 size=  383488KiB time=00:04:19.01 bitrate=12128.7k[out#0frame=15676 fps= 70 q=25.0 size=  382976KiB ti1 fps= 70 q=20.0 size=  385536KiB time=00:04:20.x elapsed=0:03:44.00    frame=15755 fps= 70 q=26.0 size=  38frame=15709 fps= 70 q=21.0 size=  387328KiB time=00:04:21.76 bitrate=12121.4kbits/frame=15835 fps= 70 q=26.0 size=  38frame=15791 fps= 70 q=22.0 size=  389376KiB time=00:04:23.13 bitrate=12122.3kbits/sframe=15915 fps= 71 q=26.0 size=  388864KiB time=00:04:25.20 bitrate=12012.0kbits/s speed=1.18x elapsed=0:03:45.55    frame=16001 fps= 71 q=19.0 size=  390912KiB time=00:04:26.63 bitrate=12010.3kbits/s speed=1.18x elapsed=0:03:46.07    frame=16080 fps= 71 q=25.0 size=  39frame=16021 fps= 71 q=25.0 size=  395264KiB time=00:04:26.96 bitrate=12128.9kbits/frame=16160 fps= 71 q=27.0 size=  395008KiB time=00:04:29.28 bitrate=12016.7kbits/s speed=1.19x elapsed=0:03:47.10    frame=16239 fps= 71 q=23.0 size=  396800KiB time=00:04:30.60 bitrate=12012.5kbits/s speed=1.19x elapsed=0:03:47.60    frame=16319 fps= 72 q=25.0 size=  398848KiB time=00:04:31.93 bitrate=12015.3kbits/s speed=1.19x elapsed=0:03:48.13    frame=16396 fps= 72 q=19.0 size=  400896KiB time=00:04:33.21 bitrate=12020.3kbits/s speed=1.19x elapsed=0:03:48.64    frame=16476 fps= 72 q=22.0 size=  40frame=16419 fps= 72 q=23.0 size=  404992KiB time=00:04:33.60 bitrate=12126.1kbits/frame=16555 fps= 72 q=23.0 size=  404736KiB time=00:04:35.86 bitrate=12018.8kbits/s speed= 1.2x elapsed=0:03:49.67    frame=16635 fps= 72 q=23.0 size=  40frame=16576 fps= 72 q=25.0 size=  408832KiB time=00:04:36.21 bitrate=12125.1kbits/frame=16708 fps= 72 q=25.0 size=  408320KiB time=00:04:38.41 bitrate=12014.2kbits/s speed=1.21x elapsed=0:03:50.70    frame=16789 fps= 73 q=24.0 size=  410624KiB time=00:04:39.76 bitrate=12023.7kbits/s speed=1.21x elapsed=0:03:51.21    frame=16869 fps= 73 q=25.0 size=  412672KiB time=00:04:41.10 bitrate=12026.4kbits/s speed=1.21x elapsed=0:03:51.73    frame=16945 fps= 73 q=25.0 size=  41frame=16891 fps= 73 q=25.0 size=  416512KiB time=00:04:41.46 bitrate=12122.5kbits/frame=17013 fps= 73 q=28.0 size=  41frame=16977 fps= 73 q=22.0 size=  418816KiB time=00:04:42.90 bitrate=12127.8kbits/frame=17093 fps= 73 q=29.0 size=  418304KiB time=00:04:44.83 bitrate=12030.7kbits/s speed=1.22x elapsed=0:03:53.29    frame=17169 fps= 73 q=26.0 size=  419840KiB time=00:04:46.10 bitrate=12021.4kbits/s speed=1.22x elapsed=0:03:53.80    frame=17249 fps= 74 q=27.0 size=  42frame=17212 fps= 73 q=25.0 size=  424448KiB time=00:04:46.81 bitrate=12123.0kbits/frame=17331 fps= 74 q=26.0 size=  42frame=17287 fps= 74 q=19.0 size=  426496KiB time=00:04:48.06 bitrate=12128.6kbits/frame=17409 fps= 74 q=24.0 size=  425728KiB time=00:04:50.10 bitrate=12021.9kbits/s speed=1.23x elapsed=0:03:55.34    frame=17489 fps= 74 q=23.0 size=  42frame=17439 fps= 74 q=25.0 size=  430336KiB time=00:04:50.60 bitrate=12131.2kbits/frame=17566 fps= 74 q=22.0 size=  42frame=17507 fps= 74 q=25.0 size=  432128KiB time=00:04:51.73 bitrate=12134.3kbits/frame=17646 fps= 74 q=21.0 size=  431616KiB time=00:04:54.05 bitrate=12024.5kbits/s speed=1.24x elapsed=0:03:56.90    frame=17725 fps= 75 q=25.0 size=  433664KiB time=00:04:55.36 bitrate=12027.7kbits/s speed=1.24x elapsed=0:03:57.40    frame=17805 fps= 75 q=25.0 size=  43frame=17744 fps= 75 q=24.0 size=  437760KiB time=00:04:55.68 bitrate=12128.3kbits/sframe=17881 fps= 75 q=26.0 size=  437504KiB time=00:04:57.96 bitrate=12028.3kbits/s speed=1.25x elapsed=0:03:58.43    frame=17961 fps= 75 q=25.0 size=  43frame=17903 fps= 75 q=24.0 size=  441600KiB time=00:04:58.33 bitrate=12126.0kbits/frame=18038 fps= 75 q=20.0 size=  441344KiB time=00:05:00.58 bitrate=12028.2kbits/s speed=1.26x elapsed=0:03:59.46    frame=18119 fps= 75 q=25.0 size=  443392KiB time=00:05:01.93 bitrate=12030.0kbits/s speed=1.26x elapsed=0:03:59.99    frame=18197 fps= 76 q=27.0 size=  44frame=18137 fps= 75 q=25.0 size=  447488KiB time=00:05:02.23 bitrate=12129.1kbits/frame=18280 fps= 76 q=18.0 size=  447232KiB time=00:05:04.61 bitrate=12027.3kbits/s speed=1.26x elapsed=0:04:01.01    [mp4 @ 00000255d44a6600] Starting seframe=18322 fps= 76 q=24.0 size=  451840KiB time=00:05:05.31 b[out#0/mp4 @ 00000255d44a6500] video:443180KiB audio:5516frame=18433 fps= 76 q=23.0 size=  454656KiB time=00:05:07.16 bitrate=12125.5kbits/s speed=1.27x elapsed=0:04:02.01    frame=18540 fps= 76 q=26.0 size=  457728KiB time=00:05:08.95 bitrate=12136.9kbits/s speed=1.27x elapsed=0:04:02.54    frame=18656 fps= 77 q=26.0 size=  460288KiB time=00:05:10.88 bitrate=12128.9kbits/s speed=1.28x elapsed=0:04:03.04    frame=18780 fps= 77 q=20.0 size=  463360KiB time=00:05:12.95 bitrate=12129.2kbits/s speed=1.28x elapsed=0:04:03.57    frame=18879 fps= 77 q=26.0 size=  465664KiB time=00:05:14.60 bitrate=12125.6kbits/s speed=1.29x elapsed=0:04:04.08    frame=19001 fps= 78 q=17.0 size=  468736KiB time=00:05:16.63 bitrate=12127.2kbits/s speed=1.29x elapsed=0:04:04.60    frame=19117 fps= 78 q=26.0 size=  471552KiB time=00:05:18.56 bitrate=12126.0kbits/s speed= 1.3x elapsed=0:04:05.11    frame=19232 fps= 78 q=25.0 size=  474624KiB time=00:05:20.48 bitrate=12132.1kbits/s speed= 1.3x elapsed=0:04:05.63    frame=19330 fps= 79 q=26.0 size=  476928KiB time=00:05:22.11 bitrate=12129.1kbits/s speed=1.31x elapsed=0:04:06.14    frame=19455 fps= 79 q=24.0 size=  480000KiB time=00:05:24.20 bitrate=12128.8kbits/s speed=1.31x elapsed=0:04:06.66    frame=19564 fps= 79 q=26.0 size=  482816KiB time=00:05:26.01 bitrate=12132.0kbits/s speed=1.32x elapsed=0:04:07.17    frame=19684 fps= 79 q=25.0 size=  485632KiB time=00:05:28.01 bitrate=12128.3kbits/s speed=1.32x elapsed=0:04:07.70    frame=19775 fps= 80 q=26.0 size=  487936KiB time=00:05:29.53 bitrate=12129.8kbits/s speed=1.33x elapsed=0:04:08.21    frame=19880 fps= 80 q=19.0 size=  490496KiB time=00:05:31.28 bitrate=12129.0kbits/s speed=1.33x elapsed=0:04:08.73    frame=20008 fps= 80 q=25.0 size=  493824KiB time=00:05:33.41 bitrate=12133.2kbits/s speed=1.34x elapsed=0:04:09.25    frame=20125 fps= 81 q=23.0 size=  496640KiB time=00:05:35.36 bitrate=12131.4kbits/s speed=1.34x elapsed=0:04:09.77    frame=20241 fps= 81 q=25.0 size=  499456KiB time=00:05:37.30 bitrate=12130.3kbits/s speed=1.35x elapsed=0:04:10.29    frame=20359 fps= 81 q=25.0 size=  502272KiB time=00:05:39.26 bitrate=12128.0kbits/s speed=1.35x elapsed=0:04:10.80    frame=20477 fps= 81 q=24.0 size=  505088KiB time=00:05:41.23 bitrate=12125.7kbits/s speed=1.36x elapsed=0:04:11.32    frame=20646 fps= 82 q=19.0 size=  509440KiB time=00:05:44.05 bitrate=12130.0kbits/s speed=1.37x elapsed=0:04:11.[out#0/frame=20824 fps= 83 q=19.0 size=  513792KiB time=00:05:47.01 bitrate=12129.1kbits/s speed=1.38x elapsed=0:04:12.35    frame=20985 fps= 83 q=23.0 size=  517888KiB time=00:05:49.70 bitrate=12131.9kbits/s speed=1.38x elapsed=0:04:12.86    frame=21167 fps= 84 q=21.0 size=  522240KiB time=00:05:52.73 bitrate=12128.7kbits/s speed=1.39x elapsed=0:04:13.38    frame=21343 fps= 84 q=28.0 size=  526848KiB time=00:05:55.66 bitrate=12134.8kbits/s speed= 1.4x elapsed=0:04:13.89    frame=21547 fps= 85 q=28.0 size=  532224KiB time=00:05:59.06 bitrate=12142.5kbits/s speed=1.41x elapsed=0:04:14.41    frame=21709 fps= 85 q=31.0 size=  535808KiB time=00:06:01.76 bitrate=12133.1kbits/s speed=1.42x elapsed=0:04:14.92    frame=21876 fps= 86 q=24.0 size=  540160KiB time=00:06:04.55 bitrate=12138.2kbits/s speed=1.43x elapsed=0:04:15.45    frame=22052 fps= 86 q=35.0 size=  545280KiB time=00:06:07.48 bitrate=12155.5kbits/s speed=1.44x elapsed=0:04:15.96    frame=22206 fps= 87 q=32.0 size=  549632KiB time=00:06:10.05 bitrate=12167.5kbits/s speed=1.44x elapsed=0:04:16.47    frame=22357 fps= 87 q=36.0 size=  553216KiB time=00:06:12.56 bitrate=12164.1kbits/s speed=1.45x elapsed=0:04:16.99    frame=22545 fps= 88 q=41.0 size=  557568KiB time=00:06:15.70 bitrate=12157.6kbits/s speed=1.46x elapsed=0:04:17.50    frame=22738 fps= 88 q=27.0 size=  561152KiB time=00:06:18.91 bitrate=12131.8kbits/s speed=1.47x elapsed=0:04:18.02    frame=22890 fps= 89 q=33.0 size=  565248KiB time=00:06:21.45 bitrate=12139.2kbits/s speed=1.48x elapsed=0:04:18.53    frame=23039 fps= 89 q=31.0 size=  569344KiB time=00:06:23.93 bitrate=12148.1kbits/s speed=1.48x elapsed=0:04:19.05    frame=23212 fps= 89 q=34.0 size=  573440KiB time=00:06:26.81 bitrate=12144.3kbits/s speed=1.49x elapsed=0:04:19.57    frame=23436 fps= 90 q=29.0 size=  579328KiB time=00:06:30.55 bitrate=12151.7kbits/s speed= 1.5x elapsed=0:04:20.08    frame=23593 fps= 91 q=37.0 size=  583168KiB time=00:06:33.16 bitrate=12150.9kbits/s speed=1.51x elapsed=0:04:20.60    frame=23804 fps= 91 q=27.0 size=  588032KiB time=00:06:36.66 bitrate=12144.1kbits/s speed=1.52x elapsed=0:04:21.11    frame=23997 fps= 92 q=26.0 size=  592384KiB time=00:06:39.90 bitrate=12135.1kbits/s speed=1.53x elapsed=0:04:21.62    frame=24235 fps= 92 q=28.0 size=  598528KiB time=N/A bitrate=N/A speed=N/A elapsed=0:04:22.15    [mp4 @ 0000013ee8bbec80] Starting second pass: moving the moov atom to the beginning of the file
[out#0/mp4 @ 0000013ee85ef700] video:590940KiB audio:7997KiB subtitle:0KiB other streams:0KiB global headers:0KiB muxing overhead: 0.105411%
frame=24241 fps= 92 q=31.0 Lsize=  599568KiB time=00:06:43.96 bitrate=12158.6kbits/s speed=1.54x elapsed=0:04:22.40    
[aac @ 0000013ee8b35500] Qavg: 1097.494

=== [11:43:28] ffmpeg -y -fflags +genpts -i \\MINGSEO2\Khay den\ASMR\V48\v48.mp4 -vf scale=1920:1080,fps=60 -c:v h264_nvenc -profile:v main -rc vbr -cq 23 -b:v 12M -maxrate 12M -bufsize 24M -preset medium -vsync 1 -pix_fmt yuv420p -r 60 -movflags +faststart -c:a aac -ar 48000 -b:a 160k normalized_2.mp4 ===

ffmpeg version 2025-10-12-git-0bc54cddb1-full_build-www.gyan.dev Copyright (c) 2000-2025 the FFmpeg developers
  built with gcc 15.2.0 (Rev8, Built by MSYS2 project)
  configuration: --enable-gpl --enable-version3 --enable-static --disable-w32threads --disable-autodetect --enable-fontconfig --enable-iconv --enable-gnutls --enable-lcms2 --enable-libxml2 --enable-gmp --enable-bzlib --enable-lzma --enable-libsnappy --enable-zlib --enable-librist --enable-libsrt --enable-libssh --enable-libzmq --enable-avisynth --enable-libbluray --enable-libcaca --enable-libdvdnav --enable-libdvdread --enable-sdl2 --enable-libaribb24 --enable-libaribcaption --enable-libdav1d --enable-libdavs2 --enable-libopenjpeg --enable-libquirc --enable-libuavs3d --enable-libxevd --enable-libzvbi --enable-liboapv --enable-libqrencode --enable-librav1e --enable-libsvtav1 --enable-libvvenc --enable-libwebp --enable-libx264 --enable-libx265 --enable-libxavs2 --enable-libxeve --enable-libxvid --enable-libaom --enable-libjxl --enable-libvpx --enable-mediafoundation --enable-libass --enable-frei0r --enable-libfreetype --enable-libfribidi --enable-libharfbuzz --enable-liblensfun --enable-libvidstab --enable-libvmaf --enable-libzimg --enable-amf --enable-cuda-llvm --enable-cuvid --enable-dxva2 --enable-d3d11va --enable-d3d12va --enable-ffnvcodec --enable-libvpl --enable-nvdec --enable-nvenc --enable-vaapi --enable-libshaderc --enable-vulkan --enable-libplacebo --enable-opencl --enable-libcdio --enable-openal --enable-libgme --enable-libmodplug --enable-libopenmpt --enable-libopencore-amrwb --enable-libmp3lame --enable-libshine --enable-libtheora --enable-libtwolame --enable-libvo-amrwbenc --enable-libcodec2 --enable-libilbc --enable-libgsm --enable-liblc3 --enable-libopencore-amrnb --enable-libopus --enable-libspeex --enable-libvorbis --enable-ladspa --enable-libbs2b --enable-libflite --enable-libmysofa --enable-librubberband --enable-libsoxr --enable-chromaprint --enable-whisper
  libavutil      60. 13.100 / 60. 13.100
  libavcodec     62. 16.100 / 62. 16.100
  libavformat    62.  6.101 / 62.  6.101
  libavdevice    62.  2.100 / 62.  2.100
  libavfilter    11.  9.100 / 11.  9.100
  libswscale      9.  3.100 /  9.  3.100
  libswresample   6.  2.100 /  6.  2.100
[mov,mp4,m4a,3gp,3g2,mj2 @ 0000020b4d084cc0] Auto-inserting h264_mp4toannexb bitstream filter
Input #0, concat, from 'temp.txt':
  Duration: N/A, start: -0.021333, bitrate: 12042 kb/s
  Stream #0:0(eng): Video: h264 (Main) (avc1 / 0x31637661), yuv420p(progressive), 1920x1080 [SAR 1:1 DAR 16:9], 11875 kb/s, 60 fps, 60 tbr, 15360 tbn
    Metadata:
      handler_name    : ?Mainconcept Video Media Handler
      vendor_id       : [0][0][0][0]
      encoder         : Lavc62.16.100 h264_nvenc
  Stream #0:1(eng): Audio: aac (LC) (mp4a / 0x6134706D), 48000 Hz, stereo, fltp, 166 kb/s, start -0.021333
    Metadata:
      handler_name    : #Mainconcept MP4 Sound Media Handler
      vendor_id       : [0][0][0][0]
Stream mapping:
  Stream #0:0 -> #0:0 (copy)
  Stream #0:1 -> #0:1 (copy)
Output #0, mp4, to 'D:\Output\Lollipop\81CG new_Lollipop.mp4':
  Metadata:
    encoder         : Lavf62.6.101
  Stream #0:0(eng): Video: h264 (Main) (avc1 / 0x31637661), yuv420p(progressive), 1920x1080 [SAR 1:1 DAR 16:9], q=2-31, 11875 kb/s, 60 fps, 60 tbr, 15360 tbn
    Metadata:
      handler_name    : ?Mainconcept Video Media Handler
      vendor_id       : [0][0][0][0]
      encoder         : Lavc62.16.100 h264_nvenc
  Stream #0:1(eng): Audio: aac (LC) (mp4a / 0x6134706D), 48000 Hz, stereo, fltp, 166 kb/s
    Metadata:
      handler_name    : #Mainconcept MP4 Sound Media Handler
      vendor_id       : [0][0][0][0]
Press [q] to stop, [?] for help
frame= 6979 fps=0.0 q=-1.0 size=  169472KiB time=00:01:56.02 bitrate=11966.0kbits/s speed= 227x elapsed=0:00:00.51    [mov,mp4,m4a,3gp,3g2,mj2 @ 0000020b4d11e140] Auto-inserting h264_mp4toannexb bitstream filter
[aost#0:1/copy @ 0000020b4da3fcc0] Non-monotonic DTS; previous: 9746432, current: 9746400; changing to 9746433. This may result in incorrect timestamps in the output file.
[mov,mp4,m4a,3gp,3g2,mj2 @ 0000020b4d11d400] Auto-inserting h264_mp4toannexb bitstream filter
frame=29893 fps=29239 q=-1.0 size=  728576KiB time=00:08:18.17 bitrate=11980.6kbits/s speed= 487x elapsed=0:00:01.02    frame=51940 fps=33519 q=-1.0 size= 1274112KiB time=00:14:25.66 bitrate=12057.3kbits/s speed= 559x elapsed=0:00:01.54    [mov,mp4,m4a,3gp,3g2,mj2 @ 0000020b4d104cc0] Auto-inserting h264_mp4toannexb bitstream filter
[mov,mp4,m4a,3gp,3g2,mj2 @ 0000020b4d103d00] Auto-inserting h264_mp4toannexb bitstream filter
frame=74275 fps=36156 q=-1.0 size= 1822464KiB time=00:20:37.86 bitrate=12060.8kbits/s speed= 603x elapsed=0:00:02.05    [mov,mp4,m4a,3gp,3g2,mj2 @ 0000020b4dde7a80] Auto-inserting h264_mp4toannexb bitstream filter
[aost#0:1/copy @ 0000020b4da3fcc0] Non-monotonic DTS; previous: 72760304, current: 72760272; changing to 72760305. This may result in incorrect timestamps in the output file.
frame=93919 fps=36439 q=-1.0 size= 2306304KiB time=00:26:05.41 bitrate=12069.1kbits/s speed= 607x elapsed=0:00:02.57    frame=94723 fps=30704 q=-1.0 size= 2326272KiB time=00:26:18.81 bitrate=12070.3kbits/s speed= 512x elapsed=0:00:03.08    frame=95400 fps=26442 q=-1.0 size= 2342912KiB time=00:26:30.10 bitrate=12070.4kbits/s speed= 441x elapsed=0:00:03.60    frame=95400 fps=23183 q=-1.0 size= 2342912KiB time=00:26:30.10 bitrate=12070.4kbits/s speed= 386x elapsed=0:00:04.11    frame=95564 fps=20598 q=-1.0 size= 2346752KiB time=00:26:32.83 bitrate=12069.4kbits/s speed= 343x elapsed=0:00:04.63    frame=95564 fps=18556 q=-1.0 size= 2346752KiB time=00:26:32.83 bitrate=12069.4kbits/s speed= 309x elapsed=0:00:05.15    frame=95564 fps=16847 q=-1.0 size= 2346752KiB time=00:26:32.83 bitrate=12069.4kbits/s speed= 281x elapsed=0:00:05.67    frame=95564 fps=15469 q=-1.0 size= 2346752KiB time=00:26:32.83 bitrate=12069.4kbits/s speed= 258x elapsed=0:00:06.17    frame=95564 fps=14261 q=-1.0 size= 2346752KiB time=00:26:32.83 bitrate=12069.4kbits/s speed= 238x elapsed=0:00:06.70    frame=95564 fps=13257 q=-1.0 size= 2346752KiB time=00:26:32.83 bitrate=12069.4kbits/s speed= 221x elapsed=0:00:07.20    frame=95564 fps=12357 q=-1.0 size= 2346752KiB time=00:26:32.83 bitrate=12069.4kbits/s speed= 206x elapsed=0:00:07.73    frame=95564 fps=11595 q=-1.0 size= 2346752KiB time=00:26:32.83 bitrate=12069.4kbits/s speed= 193x elapsed=0:00:08.24    frame=95564 fps=10901 q=-1.0 size= 2346752KiB time=00:26:32.83 bitrate=12069.4kbits/s speed= 182x elapsed=0:00:08.76    frame=95564 fps=10304 q=-1.0 size= 2346752KiB time=00:26:32.83 bitrate=12069.4kbits/s speed= 172x elapsed=0:00:09.27    frame=95564 fps=9753 q=-1.0 size= 2346752KiB time=00:26:32.83 bitrate=12069.4kbits/s speed= 163x elapsed=0:00:09.79    frame=95564 fps=9272 q=-1.0 size= 2346752KiB time=00:26:32.83 bitrate=12069.4kbits/s speed= 155x elapsed=0:00:10.30    frame=95564 fps=8824 q=-1.0 size= 2346752KiB time=00:26:32.83 bitrate=12069.4kbits/s speed= 147x elapsed=0:00:10.83    frame=95646 fps=8435 q=-1.0 size= 2348800KiB time=00:26:34.19 bitrate=12069.6kbits/s speed= 141x elapsed=0:00:11.33    frame=98677 fps=8318 q=-1.0 size= 2424064KiB time=00:27:24.71 bitrate=12073.8kbits/s speed= 139x elapsed=0:00:11.86    frame=98677 fps=7977 q=-1.0 size= 2424064KiB time=00:27:24.71 bitrate=12073.8kbits/s speed= 133x elapsed=0:00:12.37    frame=98677 fps=7653 q=-1.0 size= 2424064KiB time=00:27:24.71 bitrate=12073.8kbits/s speed= 128x elapsed=0:00:12.89    frame=103094 fps=7693 q=-1.0 size= 2528256KiB time=00:28:38.33 bitrate=12053.2kbits/s speed= 128x elapsed=0:00:13.40    frame=103384 fps=7424 q=-1.0 size= 2535424KiB time=00:28:43.17 bitrate=12053.4kbits/s speed= 124x elapsed=0:00:13.92    [mov,mp4,m4a,3gp,3g2,mj2 @ 0000020b4dde7000] Auto-inserting h264_mp4toannexb bitstream filter
frame=105837 fps=7332 q=-1.0 size= 2595328KiB time=00:29:24.07 bitrate=12052.2kbits/s speed= 122x elapsed=0:00:14.43    frame=106002 fps=7093 q=-1.0 size= 2599424KiB time=00:29:26.82 bitrate=12052.4kbits/s speed= 118x elapsed=0:00:14.94    frame=106002 fps=6852 q=-1.0 size= 2599424KiB time=00:29:26.82 bitrate=12052.4kbits/s speed= 114x elapsed=0:00:15.47    frame=106002 fps=6635 q=-1.0 size= 2599424KiB time=00:29:26.82 bitrate=12052.4kbits/s speed= 111x elapsed=0:00:15.97    frame=106002 fps=6425 q=-1.0 size= 2599424KiB time=00:29:26.82 bitrate=12052.4kbits/s speed= 107x elapsed=0:00:16.49    frame=106002 fps=6234 q=-1.0 size= 2599424KiB time=00:29:26.82 bitrate=12052.4kbits/s speed= 104x elapsed=0:00:17.00    frame=106002 fps=6047 q=-1.0 size= 2599424KiB time=00:29:26.82 bitrate=12052.4kbits/s speed= 101x elapsed=0:00:17.52    frame=106002 fps=5877 q=-1.0 size= 2599424KiB time=00:29:26.82 bitrate=12052.4kbits/s speed=  98x elapsed=0:00:18.03    frame=111346 fps=5999 q=-1.0 size= 2731520KiB time=00:30:55.89 bitrate=12057.1kbits/s speed= 100x elapsed=0:00:18.56    frame=116070 fps=6087 q=-1.0 size= 2848256KiB time=00:32:14.61 bitrate=12060.8kbits/s speed= 101x elapsed=0:00:19.06    [out#0/mp4 @ 0000020b4d9a7dc0] video:2888993KiB audio:38776KiB subtitle:0KiB other streams:0KiB global headers:0KiB muxing overhead: 0.109933%
frame=119272 fps=6105 q=-1.0 Lsize= 2930987KiB time=00:33:07.90 bitrate=12078.3kbits/s speed= 102x elapsed=0:00:19.53    

=== [11:47:51] ffmpeg -y -f concat -safe 0 -i temp.txt -c copy D:\Output\Lollipop\81CG new_Lollipop.mp4 ===

